<svg width="61" height="82" viewBox="0 0 61 82" fill="none" xmlns="http://www.w3.org/2000/svg">
<path d="M30.5067 0.96936C14.0466 0.96936 0.743164 14.3101 0.743164 30.8164C0.743164 32.7383 0.968646 34.6603 1.30687 36.5822C1.53235 37.7128 1.75783 38.7303 2.09605 39.7478C7.39487 57.7239 28.8156 80.1091 29.7175 81.1266C29.943 81.3527 30.1685 81.4658 30.5067 81.4658C30.8449 81.4658 31.0704 81.3527 31.2959 81.1266C32.1978 80.2222 53.6186 57.7239 58.9174 39.7478C59.2556 38.7303 59.4811 37.5998 59.7066 36.5822C60.0448 34.6603 60.2703 32.7383 60.2703 30.8164C60.2703 14.3101 46.9669 0.96936 30.5067 0.96936ZM30.5067 45.5137C22.3894 45.5137 15.8504 38.9564 15.8504 30.8164C15.8504 22.6763 22.3894 16.119 30.5067 16.119C38.624 16.119 45.163 22.6763 45.163 30.8164C45.163 38.9564 38.624 45.5137 30.5067 45.5137Z" fill="white"/>
</svg>
