<svg width="511" height="513" viewBox="0 0 511 513" fill="none" xmlns="http://www.w3.org/2000/svg">
<path d="M173.021 20.0246C206.37 2.3313 245.868 10.3723 271.119 15.5086C370.63 35.7662 457.442 108.332 494.591 222.608C503.285 249.349 542.873 385.335 446.46 465.73C361.233 536.798 225.209 518.151 137.716 467.666C65.2324 425.85 -7.34205 342.845 1.26899 269.485C6.68488 223.357 39.3313 220.059 80.2941 135.382C115.743 62.0905 132.225 41.674 173.021 20.0246Z" fill="#77D6D3"/>
<path d="M427.666 499.626H129.604C120.351 499.626 112.82 490.39 114.3 481.199L178.407 83.3239C179.585 76.009 185.47 69.8818 192.834 69.8818H490.897C500.15 69.8818 507.605 78.9667 506.125 88.1576L442.018 486.033C440.84 493.355 435.031 499.626 427.666 499.626Z" fill="#3039C3"/>
<path d="M415.762 499.618H117.699C108.446 499.618 101.391 491.32 102.872 482.167L167.039 83.46C168.217 76.1755 174.502 70.8198 181.867 70.8198H479.929C489.182 70.8198 496.237 79.118 494.757 88.271L430.59 486.978C429.411 494.263 423.134 499.618 415.762 499.618Z" fill="#99B9FF"/>
<path d="M415.762 500.541H117.699C113.016 500.541 108.59 498.491 105.553 494.921C102.517 491.35 101.21 486.645 101.958 482.016L166.125 83.3087C167.386 75.5325 174.003 69.897 181.867 69.897H479.929C484.613 69.897 489.039 71.9469 492.075 75.5174C495.112 79.0878 496.419 83.7929 495.671 88.4223L431.504 487.13C430.25 494.898 423.625 500.541 415.762 500.541ZM181.867 71.7503C174.917 71.7503 169.063 76.7352 167.953 83.6113L103.786 482.311C103.121 486.403 104.284 490.564 106.966 493.718C109.647 496.873 113.56 498.688 117.699 498.688H415.762C422.711 498.688 428.565 493.703 429.676 486.827L493.843 88.1197C494.508 84.0274 493.344 79.8669 490.663 76.7125C487.981 73.5582 484.069 71.7427 479.929 71.7427H181.867V71.7503Z" fill="black"/>
<path d="M408.911 487.061H128.304C119.588 487.061 112.948 479.247 114.345 470.631L174.751 95.2756C175.862 88.4146 181.776 83.3767 188.71 83.3767H469.317C478.033 83.3767 484.673 91.1908 483.276 99.8067L422.87 475.162C421.767 482.016 415.853 487.061 408.911 487.061Z" fill="white"/>
<path d="M316.048 479.262H215.563C215.049 479.262 214.641 478.846 214.641 478.34C214.641 477.825 215.057 477.417 215.563 477.417H316.048C316.561 477.417 316.969 477.833 316.969 478.34C316.969 478.846 316.561 479.262 316.048 479.262Z" fill="black"/>
<path d="M349.578 93.5963H299.687C293.523 93.5963 288.523 88.5886 288.523 82.416H360.742C360.742 88.5886 355.742 93.5963 349.578 93.5963Z" fill="#99B9FF"/>
<path d="M346.028 215.112H89.7512C85.0907 215.112 82.6584 210.089 83.3987 205.475L91.4809 159.77C92.0777 156.101 95.8016 152.508 99.5104 152.508H355.787C360.447 152.508 363.446 157.584 362.698 162.198L354.616 207.903C354.027 211.572 349.744 215.112 346.028 215.112Z" fill="#3039C3"/>
<path d="M338.482 214.272H72.091C67.4305 214.272 63.8728 210.089 64.6206 205.482L72.7028 159.778C73.2996 156.109 76.4645 153.408 80.1733 153.408H346.572C351.232 153.408 354.79 157.592 354.042 162.198L345.952 207.903C345.363 211.572 342.198 214.272 338.482 214.272Z" fill="white"/>
<path d="M338.482 215.195H72.091C69.5983 215.195 67.2416 214.106 65.6252 212.199C64.0087 210.293 63.3138 207.789 63.7066 205.323L71.7889 159.604C72.4536 155.474 75.9811 152.47 80.1733 152.47H346.572C349.064 152.47 351.421 153.56 353.037 155.466C354.654 157.372 355.349 159.876 354.956 162.342L346.874 208.062C346.194 212.192 342.674 215.195 338.482 215.195ZM80.1657 154.331C76.8875 154.331 74.1304 156.684 73.6093 159.921L65.527 205.641C65.2173 207.555 65.7611 209.514 67.0301 211.004C68.2916 212.494 70.1422 213.349 72.091 213.349H338.489C341.768 213.349 344.525 210.997 345.046 207.759L353.128 162.039C353.438 160.126 352.894 158.166 351.625 156.676C350.363 155.186 348.513 154.331 346.564 154.331H80.1657Z" fill="black"/>
<path d="M116.959 170.981C111.626 165.64 102.977 165.64 97.6446 170.981C92.3118 176.321 92.3118 184.983 97.6446 190.323C102.977 195.664 111.626 195.664 116.959 190.323C122.292 184.983 122.292 176.321 116.959 170.981ZM100.054 187.918C96.0508 183.908 96.0508 177.403 100.054 173.394C104.058 169.385 110.554 169.385 114.557 173.394C118.56 177.403 118.56 183.908 114.557 187.918C110.546 191.927 104.058 191.927 100.054 187.918Z" fill="#3039C3"/>
<path d="M88.2858 199.665C87.5984 198.977 87.5984 197.857 88.2858 197.161L97.554 187.88L100.054 190.383L90.786 199.665C90.0911 200.361 88.9732 200.361 88.2858 199.665Z" fill="#3039C3"/>
<path d="M249.025 190.202H148.963C143.91 190.202 139.816 186.102 139.816 181.041C139.816 175.981 143.91 171.881 148.963 171.881H249.025C254.078 171.881 258.172 175.981 258.172 181.041C258.172 186.094 254.078 190.202 249.025 190.202Z" fill="#99B9FF"/>
<path d="M297.836 190.058H282.691C277.638 190.058 273.544 185.958 273.544 180.898C273.544 175.837 277.638 171.737 282.691 171.737H297.836C302.889 171.737 306.983 175.837 306.983 180.898C306.983 185.958 302.889 190.058 297.836 190.058Z" fill="#99B9FF"/>
<path d="M291.944 253.32H191.883C186.829 253.32 182.735 249.22 182.735 244.159C182.735 239.099 186.829 234.999 191.883 234.999H291.944C296.998 234.999 301.092 239.099 301.092 244.159C301.099 249.212 296.998 253.32 291.944 253.32Z" fill="#99B9FF"/>
<path d="M313.804 285.749H271.603C266.549 285.749 262.455 281.649 262.455 276.588C262.455 271.528 266.549 267.428 271.603 267.428H313.804C318.858 267.428 322.952 271.528 322.952 276.588C322.952 281.649 318.858 285.749 313.804 285.749Z" fill="#CADDFF"/>
<path d="M385.986 285.749H343.784C338.731 285.749 334.637 281.649 334.637 276.588C334.637 271.528 338.731 267.428 343.784 267.428H385.986C391.039 267.428 395.133 271.528 395.133 276.588C395.133 281.649 391.032 285.749 385.986 285.749Z" fill="#CADDFF"/>
<path d="M400.987 355.273H291.627C286.574 355.273 282.48 351.174 282.48 346.113C282.48 341.052 286.574 336.952 291.627 336.952H400.995C406.048 336.952 410.142 341.052 410.142 346.113C410.135 351.174 406.041 355.273 400.987 355.273Z" fill="#CADDFF"/>
<path d="M274.02 392.128H173.611C168.557 392.128 164.463 388.028 164.463 382.967C164.463 377.907 168.557 373.807 173.611 373.807H274.02C279.073 373.807 283.167 377.907 283.167 382.967C283.167 388.028 279.073 392.128 274.02 392.128Z" fill="#CADDFF"/>
<path d="M366.883 392.128H304.846C299.792 392.128 295.698 388.028 295.698 382.967C295.698 377.907 299.792 373.807 304.846 373.807H366.883C371.936 373.807 376.03 377.907 376.03 382.967C376.03 388.028 371.936 392.128 366.883 392.128Z" fill="#99B9FF"/>
<path d="M326.139 427.741H264.102C259.049 427.741 254.955 423.641 254.955 418.581C254.955 413.52 259.049 409.42 264.102 409.42H326.139C331.193 409.42 335.287 413.52 335.287 418.581C335.287 423.641 331.193 427.741 326.139 427.741Z" fill="#CADDFF"/>
<path d="M261.715 355.273H229.174C224.121 355.273 220.027 351.174 220.027 346.113C220.027 341.052 224.121 336.952 229.174 336.952H261.715C266.768 336.952 270.862 341.052 270.862 346.113C270.862 351.174 266.768 355.273 261.715 355.273Z" fill="#CADDFF"/>
<path d="M356.376 319.774H309.333C304.279 319.774 300.185 315.674 300.185 310.613C300.185 305.553 304.279 301.453 309.333 301.453H356.376C361.429 301.453 365.523 305.553 365.523 310.613C365.523 315.674 361.422 319.774 356.376 319.774Z" fill="#99B9FF"/>
<path d="M454.927 134.18L453.318 128.295L446.679 128.597C446.059 127.304 445.349 126.071 444.541 124.921L448.061 119.278L443.733 114.989L438.128 118.582C436.965 117.78 435.734 117.077 434.449 116.479L434.676 109.815L428.784 108.264L425.725 114.172C424.328 114.066 422.908 114.073 421.48 114.202L418.353 108.317L412.484 109.928L412.786 116.585C411.494 117.205 410.271 117.916 409.122 118.726L403.488 115.201L399.205 119.543L402.785 125.155C401.984 126.328 401.282 127.561 400.685 128.847L394.038 128.62L392.497 134.52L398.396 137.584C398.283 138.983 398.298 140.405 398.427 141.835L392.558 144.967L394.166 150.852L400.806 150.549C401.425 151.843 402.135 153.076 402.944 154.226L399.424 159.869L403.752 164.158L409.357 160.565C410.52 161.366 411.751 162.07 413.035 162.667L412.809 169.332L418.7 170.882L421.76 164.975C423.157 165.088 424.577 165.073 426.005 164.944L429.132 170.83L435.001 169.218L434.699 162.562C435.99 161.941 437.222 161.23 438.362 160.421L443.997 163.946L448.28 159.611L444.7 153.999C445.5 152.826 446.203 151.593 446.8 150.307L453.447 150.534L454.988 144.634L449.088 141.57C449.202 140.171 449.186 138.749 449.058 137.319L454.927 134.18ZM427.878 154.725C419.531 157.017 410.905 152.092 408.624 143.726C406.335 135.36 411.253 126.721 419.599 124.429C427.946 122.137 436.572 127.062 438.853 135.428C441.142 143.787 436.232 152.433 427.878 154.725Z" fill="white"/>
<path d="M419.176 171.964L411.857 170.043L412.091 163.242C411.147 162.773 410.225 162.251 409.342 161.676L403.623 165.338L398.245 160.005L401.833 154.241C401.252 153.371 400.723 152.448 400.24 151.495L393.464 151.805L391.462 144.49L397.452 141.298C397.384 140.231 397.369 139.165 397.43 138.121L391.409 134.997L393.328 127.659L400.111 127.894C400.579 126.948 401.101 126.025 401.675 125.14L398.019 119.414L403.336 114.02L409.085 117.613C409.953 117.031 410.867 116.494 411.819 116.017L411.509 109.225L418.806 107.22L421.994 113.219C423.059 113.143 424.116 113.135 425.159 113.196L428.278 107.167L435.598 109.088L435.363 115.889C436.308 116.358 437.229 116.88 438.113 117.455L443.831 113.793L449.209 119.126L445.621 124.89C446.203 125.76 446.732 126.683 447.215 127.636L453.991 127.326L455.992 134.641L450.002 137.833C450.07 138.9 450.085 139.966 450.025 141.01L456.045 144.134L454.126 151.472L447.343 151.237C446.875 152.183 446.354 153.106 445.78 153.991L449.436 159.717L444.118 165.111L438.37 161.518C437.501 162.1 436.587 162.637 435.628 163.114L435.938 169.907L428.641 171.911L425.453 165.913C424.388 165.981 423.331 165.988 422.288 165.935L419.176 171.964ZM413.76 168.621L418.217 169.793L421.216 163.999L421.828 164.044C423.165 164.15 424.539 164.142 425.914 164.014L426.526 163.961L429.593 169.733L434.042 168.515L433.747 161.979L434.298 161.714C435.545 161.117 436.731 160.428 437.826 159.657L438.324 159.301L443.854 162.758L447.094 159.475L443.582 153.968L443.929 153.461C444.7 152.342 445.379 151.139 445.954 149.906L446.21 149.346L452.729 149.573L453.9 145.103L448.114 142.1L448.159 141.487C448.265 140.148 448.257 138.771 448.129 137.395L448.076 136.782L453.839 133.711L452.623 129.255L446.105 129.55L445.84 128.998C445.244 127.75 444.556 126.555 443.786 125.458L443.431 124.959L446.883 119.421L443.604 116.169L438.105 119.686L437.599 119.338C436.481 118.567 435.288 117.886 434.049 117.311L433.49 117.054L433.717 110.518L429.26 109.346L426.261 115.14L425.65 115.095C424.313 114.989 422.938 114.996 421.563 115.125L420.951 115.178L417.885 109.406L413.436 110.624L413.73 117.152L413.179 117.417C411.932 118.014 410.746 118.703 409.644 119.474L409.145 119.83L403.616 116.373L400.375 119.656L403.888 125.163L403.54 125.67C402.77 126.797 402.09 127.992 401.516 129.225L401.259 129.785L394.741 129.558L393.57 134.028L399.356 137.031L399.31 137.644C399.205 138.983 399.212 140.36 399.341 141.737L399.394 142.349L393.63 145.42L394.846 149.876L401.365 149.581L401.629 150.133C402.226 151.381 402.913 152.576 403.684 153.673L404.039 154.173L400.587 159.71L403.865 162.962L409.364 159.437L409.87 159.785C410.988 160.557 412.182 161.238 413.42 161.813L413.972 162.07L413.76 168.621ZM423.716 156.215C420.868 156.215 418.058 155.474 415.52 154.021C411.668 151.82 408.903 148.25 407.733 143.96C405.315 135.118 410.527 125.95 419.358 123.521C423.633 122.349 428.112 122.916 431.964 125.117C435.817 127.319 438.581 130.889 439.752 135.178C442.169 144.021 436.957 153.189 428.127 155.617C426.669 156.018 425.181 156.215 423.716 156.215ZM423.761 124.785C422.454 124.785 421.14 124.959 419.841 125.314C411.993 127.47 407.363 135.617 409.508 143.476C410.55 147.281 413.005 150.458 416.427 152.418C419.848 154.377 423.829 154.876 427.629 153.832C435.477 151.676 440.107 143.529 437.962 135.67C436.92 131.865 434.465 128.688 431.043 126.729C428.792 125.443 426.292 124.785 423.761 124.785Z" fill="black"/>
<path d="M447.464 51.2961C447.147 51.2961 446.83 51.2734 446.505 51.2204C444.972 50.9708 443.635 50.1311 442.728 48.8679C441.822 47.6046 441.467 46.0615 441.716 44.5335C442.237 41.3715 445.228 39.2156 448.393 39.7376C449.927 39.9872 451.264 40.8269 452.17 42.0901C453.077 43.3534 453.432 44.8965 453.182 46.4246C452.933 47.9601 452.095 49.2991 450.833 50.2068C449.844 50.9179 448.673 51.2961 447.464 51.2961ZM447.449 41.5077C445.546 41.5077 443.861 42.892 443.544 44.8285C443.37 45.8724 443.619 46.9238 444.231 47.7862C444.851 48.6485 445.765 49.2158 446.807 49.3898C447.849 49.5638 448.899 49.3142 449.761 48.7015C450.622 48.0812 451.188 47.1659 451.362 46.122C451.536 45.0781 451.286 44.0266 450.674 43.1643C450.055 42.3019 449.141 41.7346 448.099 41.5606C447.88 41.5228 447.668 41.5077 447.449 41.5077Z" fill="black"/>
<path d="M26.2108 118.499C25.8935 118.499 25.5763 118.476 25.2515 118.423C22.0941 117.901 19.9413 114.898 20.4625 111.736C20.7118 110.201 21.5502 108.862 22.8117 107.954C24.0731 107.046 25.614 106.691 27.1398 106.94C28.6732 107.19 30.0102 108.03 30.9166 109.293C31.823 110.556 32.1781 112.099 31.9288 113.627C31.6795 115.163 30.8411 116.502 29.5796 117.409C28.5901 118.128 27.4193 118.499 26.2108 118.499ZM26.1957 108.71C25.3723 108.71 24.5792 108.968 23.8994 109.452C23.0383 110.072 22.4718 110.987 22.298 112.031C21.943 114.187 23.4084 116.237 25.5612 116.592C26.6035 116.766 27.6535 116.517 28.5146 115.904C29.3757 115.284 29.9422 114.369 30.1159 113.325C30.2897 112.281 30.0404 111.229 29.4286 110.367C28.8092 109.505 27.8952 108.937 26.8528 108.763C26.6262 108.733 26.4072 108.71 26.1957 108.71Z" fill="black"/>
<path d="M56.6687 132.909C60.5087 131.386 62.3893 127.035 60.8691 123.189C59.3488 119.343 55.0034 117.46 51.1634 118.983C47.3233 120.505 45.4427 124.857 46.963 128.702C48.4832 132.548 52.8286 134.431 56.6687 132.909Z" fill="#CADDFF"/>
<path d="M415.732 40.6454C415.301 40.6454 414.871 40.6076 414.433 40.5395C410.112 39.8285 407.174 35.721 407.884 31.3941C408.231 29.2988 409.372 27.4606 411.094 26.22C412.816 24.9795 414.916 24.4953 417.016 24.8357C419.108 25.1837 420.944 26.3259 422.183 28.0506C423.421 29.7753 423.912 31.8858 423.565 33.9812C422.923 37.8769 419.546 40.6454 415.732 40.6454ZM409.712 31.6967C409.168 35.0175 411.419 38.1643 414.735 38.7089C416.344 38.9737 417.953 38.5955 419.274 37.6499C420.596 36.6968 421.473 35.2898 421.737 33.6862C422.281 30.3654 420.03 27.2185 416.714 26.6739C415.105 26.4091 413.496 26.7874 412.174 27.7329C410.852 28.6785 409.976 30.0855 409.712 31.6967Z" fill="black"/>
<path d="M372.125 23.1412C371.838 23.1412 371.551 23.0051 371.37 22.7555L368.356 18.5269C368.061 18.1109 368.16 17.536 368.575 17.2334C368.99 16.9384 369.572 17.0367 369.867 17.4528L372.881 21.6813C373.175 22.0973 373.077 22.6798 372.661 22.9748C372.495 23.0883 372.306 23.1412 372.125 23.1412Z" fill="black"/>
<path d="M382.662 37.9525C382.375 37.9525 382.088 37.8164 381.907 37.5667L378.893 33.3382C378.599 32.9222 378.697 32.3473 379.112 32.0447C379.528 31.7497 380.102 31.848 380.404 32.264L383.418 36.4926C383.712 36.9086 383.614 37.4835 383.199 37.7861C383.033 37.8996 382.851 37.9525 382.662 37.9525Z" fill="black"/>
<path d="M366.422 35.2747C366.135 35.2747 365.856 35.1385 365.674 34.8889C365.372 34.4728 365.47 33.8979 365.886 33.5954L370.093 30.5544C370.509 30.2519 371.083 30.3502 371.385 30.7662C371.687 31.1823 371.589 31.7572 371.173 32.0598L366.966 35.1007C366.792 35.2142 366.604 35.2747 366.422 35.2747Z" fill="black"/>
<path d="M381.144 24.6314C380.857 24.6314 380.578 24.4952 380.396 24.2456C380.094 23.8295 380.192 23.2546 380.608 22.952L384.815 19.9111C385.231 19.6086 385.805 19.7069 386.107 20.1229C386.409 20.539 386.311 21.1139 385.895 21.4165L381.688 24.4574C381.522 24.5784 381.333 24.6314 381.144 24.6314Z" fill="black"/>
<path d="M26.105 277.39C25.818 277.39 25.531 277.254 25.3497 277.004L22.3358 272.776C22.0412 272.36 22.1394 271.785 22.5549 271.482C22.9703 271.187 23.5444 271.285 23.8465 271.702L26.8604 275.93C27.155 276.346 27.0568 276.921 26.6413 277.224C26.4752 277.329 26.2939 277.39 26.105 277.39Z" fill="black"/>
<path d="M36.6422 292.194C36.3552 292.194 36.0681 292.058 35.8868 291.808L32.873 287.579C32.5784 287.163 32.6766 286.588 33.092 286.286C33.5075 285.991 34.0891 286.089 34.3837 286.505L37.3976 290.734C37.6921 291.15 37.594 291.725 37.1785 292.027C37.0199 292.141 36.831 292.194 36.6422 292.194Z" fill="black"/>
<path d="M20.4021 289.516C20.1151 289.516 19.8356 289.38 19.6543 289.13C19.3521 288.714 19.4503 288.139 19.8658 287.837L24.0731 284.796C24.4886 284.493 25.0626 284.591 25.3648 285.007C25.6669 285.424 25.5687 285.998 25.1533 286.301L20.9459 289.342C20.7798 289.455 20.5909 289.516 20.4021 289.516Z" fill="black"/>
<path d="M35.1315 278.873C34.8445 278.873 34.565 278.736 34.3837 278.487C34.0816 278.071 34.1798 277.496 34.5952 277.193L38.8025 274.152C39.218 273.85 39.7921 273.948 40.0942 274.364C40.3963 274.78 40.2981 275.355 39.8827 275.658L35.6754 278.699C35.5092 278.82 35.3204 278.873 35.1315 278.873Z" fill="black"/>
<path d="M75.8872 79.3094C89.1111 66.269 89.3344 45.0223 76.386 31.8537C63.4375 18.685 42.2206 18.5811 28.9966 31.6216C15.7727 44.662 15.5494 65.9087 28.4978 79.0773C41.4463 92.2459 62.6632 92.3498 75.8872 79.3094Z" fill="white"/>
<path d="M52.2479 89.9505C43.1081 89.9505 34.5197 86.4027 28.0614 79.9503C21.5654 73.4675 17.9926 64.8214 18.0077 55.6079C18.0303 36.5984 33.5 21.061 52.4896 20.9778C52.5425 20.9778 52.5953 20.9778 52.6482 20.9778C61.788 20.9778 70.3764 24.5255 76.8347 30.978C83.3307 37.4607 86.9035 46.1069 86.8884 55.3204C86.8658 74.3299 71.3961 89.8673 52.4065 89.9505C52.3536 89.9505 52.3008 89.9505 52.2479 89.9505ZM52.6407 22.8311C52.5878 22.8311 52.5425 22.8311 52.4972 22.8311C34.5197 22.9067 19.881 37.612 19.8583 55.6154C19.8432 64.3297 23.2272 72.5068 29.3682 78.6416C35.479 84.7461 43.5991 88.0972 52.2479 88.0972C52.3008 88.0972 52.3461 88.0972 52.3914 88.0972C70.3613 88.0215 85.0076 73.3087 85.0303 55.3128C85.0454 46.5986 81.6614 38.4214 75.5204 32.2866C69.4171 26.1821 61.2895 22.8311 52.6407 22.8311Z" fill="black"/>
<path d="M69.4473 39.8813L59.2349 45.895C58.7061 46.2051 58.691 46.9692 59.2046 47.302L60.7154 48.2778C61.1006 48.5274 61.2063 49.0343 60.9646 49.4125L56.2286 56.8029C55.9868 57.1887 55.4732 57.2946 55.088 57.0526L46.3032 51.4095C45.918 51.1674 45.4119 51.2733 45.1626 51.6591L34.6028 68.0589C34.361 68.4446 34.4668 68.9515 34.852 69.2011L38.0623 71.2662C38.4475 71.5082 38.9536 71.4023 39.2029 71.0166L46.8244 59.216C47.0661 58.8302 47.5797 58.7243 47.965 58.9664L56.7497 64.6095C57.135 64.8515 57.6411 64.7456 57.8903 64.3598L65.5647 52.3702C65.814 51.9844 66.3201 51.8785 66.7053 52.1206L68.3369 53.172C68.8581 53.5048 69.5454 53.172 69.5983 52.5517L70.6936 40.668C70.7465 40.0023 70.0289 39.5409 69.4473 39.8813Z" fill="#3039C3"/>
<path d="M205.774 36.7875C226.01 36.7875 245.15 45.9557 265.265 69.8442L181.957 69.9501C174.041 69.9501 167.371 75.6159 166.133 83.4451C164.66 92.7267 164.637 104.361 166.246 110.511C168.489 119.089 170.65 125.155 172.44 129.361C174.698 134.672 172.984 140.837 168.331 144.248L164.675 146.926C159.448 150.761 152.151 149.937 147.921 145.02C142.422 138.628 135.284 129.028 130.608 117.818C118.878 89.7311 127.829 45.411 166.805 37.6726C175.114 36.0311 201.445 36.7875 205.774 36.7875Z" fill="#3039C3"/>
<path d="M213.116 69.2163C211.001 64.5112 205.381 62.5142 200.675 64.6171C197.034 66.2359 192.306 68.5657 190.938 70.2677C189.299 72.3026 186.64 78.6491 188.861 83.5131C190.848 87.8702 196.407 89.0125 200.191 86.085C202.178 84.5494 204.233 81.9851 205.502 77.7036C206.204 75.3284 207.813 73.2708 210.087 72.2874C210.698 72.0227 211.371 71.8184 212.088 71.7352C213.04 71.6218 213.644 70.6686 213.335 69.7609C213.274 69.5945 213.206 69.4129 213.116 69.2163Z" fill="white"/>
<path d="M195.493 88.6418C194.813 88.6418 194.118 88.5586 193.446 88.3922C191.029 87.7946 189.05 86.1606 188.023 83.8989C185.658 78.7248 188.287 72.0908 190.221 69.6928C191.407 68.2178 194.798 66.2283 200.297 63.7774C205.524 61.4476 211.658 63.7169 213.962 68.8381C214.067 69.065 214.15 69.2768 214.211 69.4659C214.445 70.1618 214.362 70.9183 213.969 71.5386C213.576 72.1588 212.934 72.5673 212.194 72.6581C211.62 72.7262 211.031 72.8926 210.449 73.1422C208.531 73.9743 207.043 75.7368 206.378 77.9759C205.23 81.8489 203.334 84.8293 200.75 86.8263C199.21 88.0139 197.366 88.6418 195.493 88.6418ZM204.588 64.7079C203.402 64.7079 202.201 64.9499 201.053 65.4643C194.194 68.5203 192.223 70.1543 191.664 70.8502C190.243 72.6127 187.66 78.6491 189.707 83.1273C190.5 84.8671 192.026 86.1228 193.892 86.5918C195.886 87.0835 197.978 86.6372 199.633 85.3588C201.906 83.6039 203.583 80.9412 204.618 77.4464C205.441 74.6778 207.299 72.4917 209.724 71.4402C210.472 71.115 211.227 70.9107 211.983 70.8199C212.224 70.7897 212.353 70.6384 212.413 70.5552C212.466 70.472 212.549 70.2904 212.466 70.0635C212.421 69.9273 212.36 69.7685 212.285 69.6021C210.895 66.5233 207.821 64.7079 204.588 64.7079Z" fill="black"/>
<path d="M177.901 156.563C178.52 157.584 179.223 158.817 179.676 161.034L181.534 171.337L175.363 171.344C174.343 171.344 173.354 171.73 172.583 172.396L172.576 172.403C171.745 173.122 171.375 174.226 171.586 175.3C172.002 177.471 173.626 183.803 173.641 184.801C173.663 186.284 173.898 188.379 172.923 189.582L172.666 189.892C171.639 191.125 169.668 190.815 169.086 189.317L163.579 174.801C162.862 172.948 162.801 170.898 163.421 168.999L166.624 159.188C167.349 156.979 166.729 154.551 165.045 152.963L152.989 142.917C148.631 138.855 156.827 131.336 156.827 131.336C159.531 129.437 163.308 130.178 165.09 132.773L177.901 156.563Z" fill="white"/>
<path d="M171.05 191.587C170.884 191.587 170.718 191.571 170.544 191.549C169.479 191.375 168.61 190.671 168.217 189.665L162.703 175.141C161.91 173.099 161.85 170.815 162.537 168.727L165.74 158.916C166.344 157.055 165.823 154.99 164.403 153.658L152.393 143.651C151.305 142.637 150.776 141.427 150.784 140.005C150.799 135.678 155.981 130.874 156.2 130.678C156.23 130.647 156.26 130.625 156.29 130.602C157.786 129.55 159.629 129.15 161.457 129.482C163.247 129.808 164.848 130.821 165.846 132.274C165.861 132.304 165.883 132.327 165.898 132.357L178.702 156.109C179.397 157.259 180.114 158.575 180.583 160.86L182.448 171.185C182.494 171.458 182.426 171.73 182.252 171.942C182.078 172.153 181.814 172.274 181.542 172.274L175.371 172.282C174.577 172.282 173.807 172.577 173.203 173.107C172.621 173.613 172.357 174.393 172.5 175.141C172.659 175.974 173.006 177.449 173.369 179.007C174.109 182.176 174.562 184.143 174.57 184.801C174.57 185.005 174.577 185.217 174.585 185.437C174.638 186.972 174.698 188.878 173.641 190.18L173.376 190.497C172.787 191.193 171.941 191.587 171.05 191.587ZM157.408 132.077C156.041 133.348 152.65 137.122 152.634 140.012C152.634 140.905 152.952 141.646 153.616 142.259L165.626 152.267C167.606 154.127 168.323 156.949 167.492 159.491L164.29 169.302C163.738 170.989 163.783 172.827 164.425 174.476L169.94 188.999C170.091 189.385 170.415 189.65 170.838 189.718C171.261 189.786 171.669 189.635 171.949 189.302L172.206 188.992C172.825 188.235 172.772 186.715 172.727 185.49C172.719 185.255 172.712 185.036 172.712 184.824C172.704 184.317 172.017 181.367 171.556 179.423C171.186 177.849 170.838 176.359 170.672 175.489C170.4 174.09 170.899 172.645 171.964 171.715C172.916 170.883 174.117 170.429 175.355 170.421L180.424 170.414L178.762 161.2C178.354 159.218 177.75 158.099 177.108 157.04C177.1 157.025 177.093 157.009 177.085 157.002L164.297 133.272C163.579 132.243 162.424 131.525 161.132 131.29C159.818 131.056 158.496 131.336 157.408 132.077Z" fill="black"/>
<path d="M195.788 53.6865C196.369 53.5503 196.898 53.2705 197.359 52.8847L204.421 47.0222C205.177 46.5532 206.151 46.6137 206.824 47.1811L211.877 51.4777C212.526 52.0223 213.463 52.0601 214.166 51.576L220.556 47.1886L223.675 48.1947C223.917 48.2703 224.182 48.1418 224.272 47.8997L226.319 42.1507C227.195 40.1461 230.194 36.8707 229.409 36.1294C229.409 36.1294 220.254 15.7961 210.185 20.5618C208.727 21.2501 207.602 22.4907 206.952 23.9658L205.6 27.0596C204.24 30.1686 197.329 37.2716 190.07 39.1174C189.103 39.3594 186.595 39.5637 184.646 39.6847C183.188 39.7755 182.214 41.19 182.607 42.597C183.075 44.2612 183.944 46.5683 185.545 49.231C187.653 52.7334 191.732 54.6245 195.705 53.7092C195.735 53.7016 195.765 53.6941 195.788 53.6865Z" fill="white"/>
<path d="M193.68 54.859C190.115 54.859 186.708 52.9527 184.76 49.7076C183.385 47.4156 182.358 45.1084 181.723 42.8466C181.459 41.9011 181.625 40.895 182.191 40.1007C182.75 39.3065 183.627 38.8223 184.593 38.7618C187.283 38.5878 189.148 38.3987 189.851 38.2172C196.626 36.4925 203.455 29.6769 204.761 26.689L206.113 23.5951C206.869 21.8628 208.183 20.4861 209.8 19.7221C211.907 18.7236 214.12 18.6479 216.379 19.48C223.827 22.2335 229.522 34.1475 230.202 35.615C231.002 36.6211 229.968 38.1491 228.683 40.0478C228.094 40.9177 227.49 41.8103 227.188 42.4911L225.156 48.2098C224.899 48.9285 224.136 49.3067 223.411 49.0722L220.722 48.2023L214.709 52.3325C213.667 53.0435 212.27 52.983 211.303 52.1812L206.242 47.877C205.887 47.582 205.381 47.5366 204.973 47.7711L197.963 53.5882C197.382 54.0723 196.709 54.4127 196.014 54.5791L195.924 54.6018C195.168 54.7758 194.421 54.859 193.68 54.859ZM213.312 20.7584C212.383 20.7584 211.477 20.9702 210.585 21.3938C209.369 21.9687 208.387 23.0126 207.805 24.3364L206.453 27.4303C205.041 30.6679 198.054 38.0432 190.304 40.0175C189.473 40.2293 187.592 40.426 184.714 40.6151C184.299 40.6454 183.944 40.8421 183.71 41.1749C183.468 41.5153 183.4 41.9465 183.513 42.3474C183.921 43.7922 184.745 46.0767 186.353 48.7545C188.302 51.9921 191.981 53.6184 195.516 52.8015L195.591 52.7863C196.022 52.6804 196.422 52.4762 196.785 52.1736L203.847 46.3112C203.878 46.2809 203.915 46.2582 203.953 46.2355C205.048 45.5547 206.453 45.6455 207.435 46.47L212.496 50.7742C212.821 51.0465 213.304 51.0616 213.667 50.8196L220.057 46.4322C220.291 46.2733 220.594 46.2279 220.866 46.3112L223.57 47.1811L225.473 41.8406C225.481 41.8179 225.488 41.8027 225.496 41.78C225.858 40.9404 226.523 39.9646 227.165 39.0115C227.701 38.2172 228.487 37.0523 228.623 36.5681C228.615 36.5454 228.6 36.5303 228.593 36.5076C228.532 36.379 222.799 23.8145 215.752 21.2123C214.898 20.9097 214.098 20.7584 213.312 20.7584Z" fill="black"/>
<path d="M244.274 28.1035C241.91 23.6329 238.012 25.6526 235.754 12.967C234.394 5.34205 228.276 13.2166 227.762 11.2726C225.836 4.10905 225.911 4.35111 223.328 1.84727C221.621 0.190659 217.202 1.12109 214.709 3.14836C211.416 5.81861 208.13 13.3074 204.255 20.5617C202.254 24.3213 203.938 30.2291 211.023 29.0944C213.244 28.7389 213.388 25.282 215.329 25.6829C220.375 26.7116 216.228 30.9931 219.189 32.4909C222.029 33.9281 223.547 34.3139 227.218 35.441C231.66 36.795 231.493 42.0372 238.548 40.1461C242.227 39.1476 247.507 34.2231 244.274 28.1035Z" fill="black"/>
<path d="M439.858 448.642C440.213 449.201 453.885 468.771 453.885 468.771C453.885 468.771 451.974 475.563 448.431 476.532L432.176 458.922L439.858 448.642Z" fill="white"/>
<path d="M448.431 477.455C448.174 477.455 447.933 477.349 447.751 477.16L431.496 459.55C431.194 459.224 431.171 458.725 431.436 458.37L439.118 448.089C439.299 447.847 439.578 447.719 439.888 447.719C440.19 447.726 440.47 447.885 440.636 448.142C440.953 448.634 450.856 462.817 454.64 468.241C454.799 468.468 454.844 468.756 454.776 469.02C454.565 469.769 452.608 476.343 448.68 477.424C448.597 477.447 448.514 477.455 448.431 477.455ZM433.385 458.854L448.696 475.442C450.758 474.414 452.291 470.768 452.88 468.929C450.962 466.184 442.441 453.975 439.835 450.223L433.385 458.854Z" fill="black"/>
<path d="M463.07 473.975C463.07 473.975 458.991 489.792 452.178 497.924C445.364 506.056 434.042 503.128 434.042 503.128C434.042 503.128 433.211 496.252 434.631 494.46C436.051 492.674 443.891 483.113 443.869 474.52L447.351 469.217L449.813 472.402L453.114 465.631L463.07 473.975Z" fill="white"/>
<path d="M438.884 504.588C436.051 504.588 434.011 504.082 433.808 504.029C433.437 503.93 433.165 503.62 433.12 503.242C432.977 502.032 432.327 495.874 433.906 493.885L434.057 493.696C441.414 484.467 442.955 478.173 442.94 474.527C442.94 474.346 442.993 474.164 443.091 474.013L446.573 468.71C446.739 468.46 447.011 468.309 447.313 468.294C447.623 468.279 447.895 468.415 448.076 468.65L449.625 470.654L452.268 465.223C452.389 464.966 452.631 464.784 452.903 464.724C453.182 464.663 453.469 464.739 453.688 464.92L463.644 473.256C463.916 473.483 464.037 473.854 463.946 474.194C463.78 474.845 459.739 490.307 452.873 498.507C448.688 503.529 442.962 504.588 438.884 504.588ZM434.888 502.364C437.267 502.803 445.999 503.862 451.468 497.334C457.352 490.307 461.219 477.175 462.02 474.308L453.424 467.106L450.644 472.818C450.501 473.105 450.229 473.302 449.904 473.332C449.587 473.362 449.277 473.234 449.081 472.976L447.411 470.813L444.79 474.799C444.722 478.778 443.015 485.42 435.5 494.845L435.348 495.034C434.608 495.98 434.623 499.679 434.888 502.364Z" fill="black"/>
<path d="M457.548 475.14C457.548 475.14 453.258 498.522 436.753 500.262L457.548 475.14Z" fill="white"/>
<path d="M436.761 501.184C436.293 501.184 435.892 500.829 435.839 500.352C435.787 499.845 436.157 499.384 436.663 499.331C452.276 497.69 456.604 475.193 456.642 474.966C456.732 474.467 457.216 474.126 457.722 474.225C458.228 474.315 458.553 474.8 458.462 475.299C458.281 476.282 453.847 499.384 436.859 501.169C436.821 501.184 436.791 501.184 436.761 501.184Z" fill="black"/>
<path d="M431.406 467.243C431.481 468.082 430.62 479.807 426.987 487.175C426.987 487.175 429.729 492.614 434.865 491.646C434.865 491.646 441.24 477.629 442.494 466.955L431.406 467.243Z" fill="white"/>
<path d="M433.679 492.682C429.804 492.682 427.108 489.475 426.163 487.591C426.035 487.334 426.035 487.024 426.163 486.766C429.578 479.845 430.559 468.468 430.491 467.326C430.476 467.076 430.559 466.819 430.733 466.63C430.899 466.441 431.141 466.327 431.39 466.32L442.471 466.032C442.751 466.017 443 466.138 443.181 466.335C443.363 466.532 443.446 466.804 443.416 467.069C442.162 477.765 435.975 491.456 435.711 492.031C435.583 492.304 435.333 492.5 435.039 492.561C434.563 492.636 434.117 492.682 433.679 492.682ZM428.029 487.137C428.686 488.219 430.816 491.169 434.223 490.798C435.273 488.4 440.092 477.076 441.429 467.901L432.304 468.135C432.131 471.29 431.043 480.692 428.029 487.137Z" fill="black"/>
<path d="M438.868 484.702C438.868 484.702 439.828 496.003 438.891 501.979C438.657 503.477 437.577 504.694 436.134 505.148C431.526 506.578 417.756 510.943 404.673 510.519C401.675 510.421 400.081 508.401 399.688 507.259C398.608 504.112 400.104 499.838 404.749 495.625C411.502 489.505 427.123 480.284 427.123 480.284L431.866 485.995L430.643 491.6L438.868 484.702Z" fill="white"/>
<path d="M406.494 511.472C405.874 511.472 405.255 511.464 404.636 511.442C401.033 511.328 399.25 508.855 398.804 507.561C397.505 503.779 399.446 499.18 404.114 494.944C410.86 488.832 425.997 479.868 426.639 479.49C427.032 479.255 427.53 479.346 427.817 479.694L432.561 485.405C432.742 485.624 432.818 485.919 432.757 486.192L432.108 489.149L438.264 483.99C438.528 483.771 438.899 483.711 439.216 483.847C439.533 483.983 439.752 484.278 439.782 484.626C439.82 485.095 440.742 496.109 439.797 502.122C439.503 503.976 438.204 505.473 436.398 506.033L436.172 506.101C431.353 507.607 418.927 511.472 406.494 511.472ZM426.911 481.487C423.852 483.325 411.17 491.048 405.361 496.313C401.327 499.974 399.529 503.953 400.557 506.956C400.798 507.66 402.007 509.498 404.696 509.589C417.424 510.005 430.65 505.882 435.628 504.331L435.854 504.263C436.98 503.915 437.796 502.985 437.977 501.835C438.672 497.448 438.302 489.981 438.075 486.57L431.232 492.311C430.93 492.568 430.499 492.599 430.159 492.395C429.819 492.19 429.653 491.789 429.736 491.404L430.862 486.237L426.911 481.487Z" fill="black"/>
<path d="M432.81 501.608C432.81 501.608 422.115 506.442 405.512 506.843L432.81 501.608Z" fill="white"/>
<path d="M405.512 507.765C405.013 507.765 404.598 507.365 404.59 506.865C404.575 506.351 404.983 505.927 405.489 505.92C421.714 505.526 432.327 500.814 432.433 500.768C432.894 500.557 433.445 500.768 433.656 501.23C433.868 501.699 433.656 502.243 433.196 502.455C432.75 502.659 422.137 507.365 405.542 507.773C405.527 507.765 405.519 507.765 405.512 507.765Z" fill="black"/>
<path d="M407.695 313.835C407.695 313.835 387.096 359.547 387.021 390.758C386.945 421.969 435.537 465.026 435.537 465.026L444.647 457.114C444.647 457.114 424.962 431.228 421.858 407.93C418.753 384.631 431.647 349.313 431.647 349.313L435.167 318.246L407.695 313.835Z" fill="#212121"/>
<path d="M457.042 313.835C457.042 313.835 468.153 382.422 444.269 472.833L427.311 470.079C427.311 470.079 436.708 391.538 418.089 349.752L413.942 311.982L457.042 313.835Z" fill="#212121"/>
<path d="M427.123 391.742C426.609 391.742 426.193 391.318 426.201 390.811C426.261 380.569 423.376 361.015 419.259 354.994C418.972 354.57 419.078 353.995 419.501 353.708C419.924 353.42 420.498 353.526 420.785 353.95C425.242 360.478 428.105 380.463 428.044 390.827C428.044 391.333 427.636 391.742 427.123 391.742Z" fill="white"/>
<path d="M428.535 450.835C428.52 450.835 428.497 450.835 428.482 450.835C427.976 450.805 427.583 450.366 427.614 449.859C428.142 440.298 427.863 428.233 427.855 428.112C427.84 427.597 428.248 427.174 428.754 427.166C429.253 427.174 429.691 427.559 429.698 428.066C429.698 428.187 429.993 440.328 429.457 449.958C429.426 450.449 429.019 450.835 428.535 450.835Z" fill="#99B9FF"/>
<path d="M452.419 208.894C454.346 212.774 451.611 214.143 452.948 221.678C453.93 227.215 455.917 229.333 454.602 232.086C453.416 234.567 450.554 235.46 448.665 236.05C440.084 238.728 431.821 234.371 426.745 231.7C422.636 229.537 417.008 226.572 417.386 223.561C417.756 220.588 423.565 221.004 426.292 216.027C428.49 212.025 425.967 209.506 428.278 206.125C431.269 201.745 438.241 201.927 439.359 201.957C443.846 202.071 450.048 204.113 452.419 208.894Z" fill="black"/>
<path d="M404.485 231.829L427.047 237.487C427.455 237.578 427.87 237.344 428.014 236.95C429.547 232.624 427.16 227.775 426.465 226.519C426.36 226.322 426.171 226.179 425.952 226.118C424.834 225.816 423.822 225.415 422.915 224.938C421.797 224.348 421.337 222.971 421.85 221.814C422.674 219.946 423.572 217.419 424.079 216.39C424.199 216.141 424.199 215.838 424.041 215.604C423.656 215.036 423.059 214.597 423.127 213.743C423.157 213.417 423.376 213.13 423.686 213.039C426.518 212.199 428.709 207.941 430.605 206.647C431.504 206.034 432.115 205.868 433.128 205.316C433.301 205.225 433.498 205.18 433.687 205.225C438.498 206.269 431.118 212.252 437.433 215.77C437.75 215.944 437.939 216.299 437.864 216.655C437.758 217.177 437.781 217.88 437.841 218.523C437.841 218.531 437.841 218.539 437.841 218.546C437.909 219.197 438.672 219.514 439.178 219.098C440.13 218.319 441.112 218.092 441.686 218.433C442.502 218.909 442.449 220.49 442.162 221.436C441.588 223.319 439.624 224.189 438.498 224.545C438.068 224.681 437.826 225.127 437.954 225.558C438.702 228.153 440.961 236.262 441.134 239.953C441.15 240.332 441.414 240.649 441.784 240.733L446.09 241.678C452.57 243.1 460.268 247.026 465.223 251.444C465.223 251.444 474.362 258.592 473.902 259.069C460.494 272.723 434.17 264.182 424.426 259.856C414.984 255.642 403.85 231.693 404.485 231.829Z" fill="white"/>
<path d="M453.28 267.397C439.76 267.397 426.299 261.686 424.056 260.688C418.95 258.418 413.639 250.922 410.089 245.037C408.14 241.807 403.185 232.767 403.586 231.565C403.737 231.111 404.22 230.831 404.689 230.937C404.696 230.937 404.704 230.937 404.719 230.944L427.175 236.572C428.497 232.699 426.405 228.335 425.687 227.018C424.547 226.708 423.467 226.285 422.492 225.77C420.959 224.953 420.302 223.055 421.012 221.451C421.397 220.573 421.812 219.514 422.183 218.576C422.59 217.532 422.953 216.625 423.225 216.05C423.164 215.967 423.089 215.883 423.021 215.793C422.643 215.324 422.122 214.688 422.213 213.667C422.273 212.964 422.764 212.351 423.436 212.154C424.917 211.715 426.329 209.998 427.583 208.493C428.452 207.449 429.268 206.458 430.099 205.891C430.711 205.475 431.201 205.24 431.715 204.998C432.01 204.862 432.327 204.711 432.705 204.506C433.082 204.302 433.505 204.234 433.906 204.317C434.895 204.537 435.575 204.953 435.983 205.588C436.648 206.64 436.353 207.91 436.043 209.257C435.552 211.383 435.092 213.387 437.909 214.961C438.581 215.331 438.944 216.11 438.793 216.844C438.747 217.071 438.702 217.502 438.77 218.266C439.979 217.343 441.27 217.101 442.177 217.638C443.506 218.418 443.438 220.505 443.068 221.716C442.388 223.955 440.205 224.983 438.891 225.407C439.805 228.599 441.882 236.164 442.071 239.848L446.301 240.778C452.925 242.23 460.781 246.24 465.85 250.756C474.77 257.73 474.823 258.494 474.853 258.955C474.869 259.22 474.755 259.53 474.574 259.719C468.879 265.499 461.068 267.397 453.28 267.397ZM405.905 233.138C408.163 238.312 417.122 255.574 424.811 258.986C428.18 260.483 457.858 273.056 472.731 258.918C471.568 257.722 467.972 254.742 464.671 252.163C459.777 247.805 452.253 243.963 445.908 242.571L441.603 241.625C440.832 241.459 440.266 240.778 440.228 239.984C440.062 236.383 437.781 228.221 437.086 225.808C436.821 224.885 437.327 223.94 438.241 223.652C439.186 223.357 440.847 222.638 441.293 221.156C441.572 220.241 441.421 219.325 441.233 219.219C441.127 219.151 440.553 219.174 439.775 219.802C439.276 220.21 438.596 220.309 438 220.059C437.403 219.809 436.995 219.257 436.935 218.622C436.852 217.767 436.859 217.071 436.95 216.542C432.969 214.295 433.724 211.012 434.23 208.833C434.442 207.918 434.661 206.972 434.412 206.572C434.268 206.337 433.883 206.201 433.566 206.133C433.165 206.352 432.825 206.511 432.501 206.662C432.017 206.889 431.632 207.071 431.141 207.404C430.522 207.827 429.789 208.72 429.011 209.658C427.614 211.345 426.035 213.259 424.063 213.886C424.071 214.098 424.184 214.265 424.464 214.605C424.585 214.756 424.713 214.908 424.819 215.074C425.151 215.573 425.189 216.224 424.917 216.784C424.668 217.29 424.298 218.236 423.905 219.234C423.535 220.18 423.112 221.262 422.704 222.169C422.386 222.896 422.673 223.743 423.353 224.106C424.214 224.56 425.174 224.938 426.193 225.21C426.662 225.339 427.047 225.634 427.274 226.058C428.067 227.502 430.529 232.586 428.883 237.245C428.588 238.078 427.712 238.569 426.851 238.38L405.905 233.138Z" fill="black"/>
<path d="M429.88 227.805C428.8 227.805 427.538 227.639 426.224 227.147C425.748 226.965 425.506 226.436 425.687 225.952C425.869 225.475 426.398 225.233 426.881 225.415C429.963 226.572 432.644 225.513 432.675 225.505C433.15 225.309 433.687 225.543 433.876 226.012C434.064 226.489 433.838 227.026 433.369 227.215C433.264 227.253 431.866 227.805 429.88 227.805Z" fill="black"/>
<path d="M449.096 206.889C449.096 206.889 450.546 198.084 457.526 200.467C464.497 202.85 457.737 210.096 452.465 210.649C447.192 211.208 449.096 206.889 449.096 206.889Z" fill="black"/>
<path d="M330.233 198.576C330.233 198.576 327.854 193.515 327.454 191.102C326.464 185.066 324.357 177.517 319.96 172.479C318.397 170.686 316.448 169.294 312.762 168.931C307.739 168.439 300.842 164.006 299.883 168.659C299.052 172.675 305.662 172.063 308.101 174.967C309.378 176.48 314.9 182.675 311.161 185.792C308.487 188.024 305.284 187.055 304.476 188.553C304.022 189.393 304.234 190.391 304.853 191.117C306.931 193.561 313.238 191.186 313.238 191.186C314.514 190.648 316.048 192.229 316.788 193.402L321.977 201.715L330.233 198.576Z" fill="white"/>
<path d="M321.592 202.85L316.002 193.893C315.247 192.683 314.122 191.821 313.593 192.04C312.853 192.32 306.576 194.574 304.143 191.715C303.237 190.648 303.048 189.234 303.652 188.107C304.242 187.01 305.443 186.798 306.712 186.571C307.935 186.352 309.325 186.102 310.564 185.073C311.13 184.597 311.44 184.022 311.501 183.311C311.727 180.656 308.592 176.972 307.565 175.761L307.391 175.557C306.561 174.566 305.012 174.014 303.516 173.485C301.197 172.66 298.32 171.631 298.969 168.462C299.196 167.373 299.709 166.586 300.51 166.117C302.3 165.058 305.042 165.905 307.935 166.798C309.612 167.32 311.342 167.857 312.845 168C317.128 168.416 319.198 170.186 320.655 171.858C325.323 177.214 327.423 185.194 328.368 190.943C328.738 193.205 331.049 198.122 331.072 198.167L331.495 199.075L321.592 202.85ZM313.789 190.142C315.375 190.142 316.864 191.783 317.574 192.91L322.362 200.573L328.987 198.054C328.269 196.458 326.857 193.145 326.547 191.246C325.641 185.731 323.647 178.106 319.266 173.076C317.981 171.609 316.297 170.194 312.671 169.839C310.987 169.672 309.159 169.105 307.399 168.56C305.012 167.819 302.55 167.055 301.462 167.698C301.25 167.826 300.948 168.076 300.79 168.825C300.487 170.27 301.53 170.799 304.143 171.73C305.79 172.312 307.656 172.978 308.811 174.355L308.985 174.559C310.262 176.057 313.646 180.043 313.351 183.47C313.245 184.68 312.709 185.701 311.757 186.495C310.141 187.842 308.358 188.16 307.044 188.394C306.228 188.538 305.45 188.674 305.284 188.984C304.989 189.529 305.231 190.126 305.556 190.512C306.908 192.101 311.433 190.875 312.913 190.316C313.2 190.194 313.495 190.142 313.789 190.142Z" fill="black"/>
<path d="M460.472 331.612C460.472 331.612 452.268 326.15 447.85 325.19C445.161 324.6 441.807 326.12 440.085 327.27C439.193 327.867 439.276 329.206 440.243 329.683C441.822 330.462 444.171 330.916 445.334 331.612C448.129 333.291 453.077 345.387 467.073 336.476L465.238 329.789L460.472 331.612Z" fill="white"/>
<path d="M457.737 340.644C452.132 340.644 448.764 336.703 446.633 334.214C445.946 333.412 445.297 332.656 444.866 332.399C444.352 332.088 443.476 331.809 442.555 331.514C441.625 331.219 440.659 330.908 439.843 330.507C439.087 330.137 438.612 329.418 438.551 328.579C438.498 327.739 438.884 326.96 439.578 326.498C441.693 325.084 445.176 323.654 448.054 324.282C452.072 325.159 458.855 329.456 460.585 330.576L464.921 328.919C465.162 328.828 465.434 328.843 465.668 328.957C465.903 329.078 466.076 329.29 466.144 329.539L467.98 336.226C468.086 336.62 467.927 337.036 467.587 337.255C463.697 339.721 460.456 340.644 457.737 340.644ZM446.596 325.984C444.594 325.984 442.207 326.967 440.613 328.034C440.409 328.17 440.402 328.374 440.402 328.458C440.409 328.541 440.44 328.737 440.666 328.843C441.361 329.184 442.252 329.471 443.121 329.751C444.156 330.084 445.13 330.394 445.825 330.81C446.513 331.226 447.185 332.013 448.046 333.011C451.181 336.673 455.894 342.179 466.016 336.045L464.634 331.014L460.811 332.474C460.532 332.58 460.222 332.55 459.973 332.383C459.89 332.331 451.861 327.013 447.668 326.09C447.321 326.014 446.966 325.984 446.596 325.984Z" fill="black"/>
<path d="M318.163 198.72L329.637 193.939C329.637 193.939 356.792 212.691 368.19 217.812C380.162 223.191 408.843 231.103 417.046 233.327C418.315 233.667 419.206 234.802 419.252 236.118C419.418 240.808 421.004 251.648 431.866 254.931C446.369 259.311 455.335 251.58 458.764 247.662C459.769 246.519 461.461 246.315 462.715 247.178C471.794 253.464 504.229 277.375 507.122 299.841C510.212 327.24 465.593 340.372 465.593 340.372L462.337 328.722C462.337 328.722 476.659 319.963 474.989 305.507C472.187 294.826 467.625 292.005 464.354 290.93C462.609 290.355 461.008 291.346 460.758 293.169C459.369 303.26 459.829 310.568 460.388 314.69C460.698 316.96 459.172 319.085 456.929 319.539C427.062 325.659 399.733 315.674 388.282 310.023C384.203 308.011 381.922 303.571 382.625 299.077C384.475 287.216 388.282 273.169 390.397 265.816C391.138 263.252 389.408 260.627 386.764 260.309C380.993 259.629 374.95 258.244 368.832 255.869C329.954 240.74 318.163 198.72 318.163 198.72Z" fill="white"/>
<path d="M464.966 341.521L461.265 328.299L461.861 327.936C461.997 327.852 475.616 319.327 474.09 305.681C471.349 295.303 467.066 292.791 464.082 291.808C463.5 291.619 462.941 291.664 462.496 291.936C462.058 292.209 461.771 292.693 461.688 293.29C460.328 303.124 460.736 310.288 461.317 314.562C461.688 317.3 459.852 319.887 457.133 320.447C424.494 327.134 395.881 314.796 387.89 310.855C383.433 308.661 380.955 303.866 381.726 298.934C383.584 287.012 387.406 272.904 389.521 265.559C389.801 264.591 389.642 263.555 389.083 262.722C388.532 261.89 387.648 261.346 386.666 261.232C380.374 260.491 374.27 258.978 368.507 256.739C348.188 248.834 335.34 233.554 328.141 222.124C320.353 209.756 317.309 199.083 317.279 198.977L317.06 198.19L329.75 192.903L330.165 193.19C330.437 193.379 357.381 211.95 368.575 216.98C380.449 222.313 408.866 230.165 417.295 232.442C418.965 232.896 420.12 234.363 420.181 236.096C420.332 240.453 421.812 250.937 432.138 254.054C446.271 258.328 454.988 250.582 458.077 247.057C459.391 245.559 461.612 245.286 463.251 246.429C473.018 253.199 505.128 277.042 508.051 299.735C509.358 311.332 502.431 322.202 488.019 331.181C477.271 337.875 465.986 341.242 465.872 341.272L464.966 341.521ZM463.417 329.123L466.235 339.192C472.459 337.149 508.935 324.123 506.208 299.94C503.383 278.025 471.809 254.591 462.194 247.934C461.325 247.336 460.154 247.473 459.467 248.267C456.143 252.064 446.762 260.393 431.602 255.816C420.128 252.352 418.496 240.907 418.33 236.149C418.3 235.233 417.688 234.454 416.812 234.22C408.352 231.928 379.807 224.045 367.812 218.66C357.101 213.849 333.111 197.456 329.523 194.99L319.296 199.249C321.162 205.044 334.086 241.353 369.172 254.999C374.792 257.185 380.744 258.66 386.877 259.387C388.403 259.568 389.77 260.408 390.616 261.694C391.47 262.987 391.719 264.583 391.289 266.074C389.189 273.381 385.382 287.405 383.546 299.221C382.904 303.351 384.974 307.36 388.698 309.198C396.553 313.071 424.69 325.212 456.755 318.639C458.523 318.276 459.724 316.597 459.482 314.819C458.885 310.431 458.47 303.094 459.852 293.048C460.011 291.899 460.6 290.945 461.514 290.378C462.428 289.811 463.546 289.697 464.656 290.06C469.989 291.815 473.668 296.8 475.896 305.288L475.918 305.416C477.452 318.73 466.197 327.24 463.417 329.123Z" fill="black"/>
<path d="M423.21 309.637C423.097 309.637 422.976 309.615 422.862 309.569C398.842 299.705 395.322 272.556 395.292 272.284C395.232 271.777 395.594 271.316 396.1 271.255C396.606 271.202 397.067 271.558 397.127 272.065C397.158 272.329 400.564 298.419 423.565 307.86C424.041 308.056 424.26 308.593 424.071 309.07C423.92 309.425 423.572 309.637 423.21 309.637Z" fill="black"/>
<path d="M53.2525 499.445H33.6964L40.7363 485.655L56.2814 487.016L53.2525 499.445Z" fill="white"/>
<path d="M53.2525 500.368H33.6963C33.3715 500.368 33.0769 500.201 32.9108 499.929C32.7446 499.656 32.7295 499.309 32.873 499.021L39.9129 485.231C40.0866 484.898 40.4416 484.694 40.8193 484.732L56.3645 486.093C56.6364 486.116 56.8782 486.26 57.0368 486.479C57.1954 486.699 57.2483 486.978 57.1803 487.236L54.1438 499.664C54.0456 500.08 53.6754 500.368 53.2525 500.368ZM35.207 498.522H52.5198L55.1257 487.848L41.2725 486.63L35.207 498.522Z" fill="black"/>
<path d="M38.931 498.31L47.6855 491.426C48.7355 490.602 49.0527 489.134 48.4107 488.045C46.628 485.019 41.7862 473.559 35.8189 469.55C34.1873 468.453 31.9666 468.861 30.7731 470.458L3.98073 506.328C2.7495 507.977 3.29335 510.345 5.12887 511.2C7.32695 512.228 10.8544 512.743 16.0437 510.496C24.4433 506.858 34.0665 501.585 37.0803 499.906C37.6091 499.611 38.085 499.225 38.4778 498.764C38.6137 498.597 38.7648 498.446 38.931 498.31Z" fill="white"/>
<path d="M9.30596 513C7.35715 513 5.84644 512.561 4.74363 512.039C3.63326 511.518 2.82503 510.534 2.52288 509.331C2.21319 508.098 2.47756 506.797 3.24047 505.769L30.0329 469.898C31.5285 467.901 34.2931 467.402 36.3325 468.771C41.3103 472.114 45.3817 480.133 47.8139 484.921C48.3804 486.033 48.8639 486.986 49.2038 487.568C50.08 489.074 49.6645 491.041 48.252 492.153L39.4975 499.036C39.3993 499.112 39.3011 499.218 39.1727 499.369C38.7043 499.914 38.1529 500.368 37.526 500.723C34.7236 502.289 24.9116 507.675 16.4063 511.351C13.5964 512.569 11.2321 513 9.30596 513ZM33.787 469.86C32.9259 469.86 32.0723 470.261 31.5058 471.017L4.72097 506.888C4.29041 507.471 4.13934 508.197 4.31307 508.885C4.47925 509.543 4.91736 510.08 5.52164 510.368C8.19559 511.616 11.7004 511.374 15.6736 509.649C24.0958 506.003 33.8399 500.655 36.6271 499.097C37.0577 498.855 37.4429 498.544 37.7677 498.159C37.8961 498.007 38.1001 497.773 38.3569 497.576L47.1114 490.693C47.7913 490.155 48.0103 489.195 47.61 488.499C47.2398 487.871 46.764 486.941 46.1672 485.761C43.8181 481.131 39.8827 473.385 35.2977 470.314C34.8369 470.011 34.3157 469.86 33.787 469.86Z" fill="black"/>
<path d="M3.51996 509.052C3.51241 509.067 3.48975 509.074 3.47464 509.067C3.21782 508.976 2.96855 508.87 2.7344 508.764C0.898884 507.902 0.35503 505.542 1.58626 503.893L28.3787 468.022C29.5721 466.426 31.7929 466.017 33.4244 467.114C33.7266 467.319 34.0287 467.53 34.3233 467.75C34.3384 467.765 34.3384 467.787 34.3309 467.803L3.51996 509.052Z" fill="white"/>
<path d="M3.47463 509.99C3.36888 509.99 3.26313 509.974 3.16494 509.937C2.8779 509.831 2.60598 509.717 2.34916 509.604C1.23878 509.082 0.430556 508.099 0.128415 506.896C-0.181281 505.663 0.0830933 504.362 0.846001 503.333L27.6384 467.462C29.134 465.458 31.8986 464.966 33.9381 466.335C34.2553 466.547 34.565 466.774 34.8671 466.993C35.275 467.296 35.3732 467.924 35.0711 468.34L4.25265 509.596C4.07892 509.846 3.77677 509.99 3.47463 509.99ZM31.4001 467.417C30.539 467.417 29.6854 467.818 29.1189 468.574L2.32649 504.445C1.89594 505.027 1.74487 505.753 1.9186 506.442C2.08478 507.1 2.52289 507.637 3.12717 507.925C3.14983 507.932 3.16494 507.94 3.1876 507.947L33.0467 467.969C33.0014 467.939 32.9561 467.909 32.9108 467.878C32.45 467.568 31.9213 467.417 31.4001 467.417Z" fill="black"/>
<path d="M30.1084 498.643C29.6325 498.643 29.2322 498.28 29.1869 497.796L28.575 490.776C28.5297 490.269 28.9074 489.815 29.4135 489.77C29.9196 489.732 30.3728 490.103 30.4181 490.609L31.0299 497.629C31.0753 498.136 30.6976 498.59 30.1915 498.635C30.1613 498.643 30.1311 498.643 30.1084 498.643Z" fill="black"/>
<path d="M25.0853 501.344C24.6095 501.344 24.2091 500.98 24.1638 500.496L23.552 493.476C23.5066 492.97 23.8843 492.516 24.3904 492.47C24.8965 492.433 25.3497 492.803 25.395 493.31L26.0069 500.33C26.0522 500.837 25.6745 501.291 25.1684 501.336C25.1382 501.336 25.108 501.344 25.0853 501.344Z" fill="black"/>
<path d="M176.096 487.327L161.298 487.115C160.248 487.1 159.297 487.75 158.881 488.771C157.522 492.115 154.734 499.952 154.991 507.418C155.059 509.46 156.645 511.079 158.579 511.109L201.997 511.73C203.991 511.76 205.539 509.854 205.169 507.788C204.724 505.307 203.122 502.032 198.401 499.044C190.765 494.203 181.142 489.331 178.105 487.826C177.478 487.501 176.791 487.334 176.096 487.327Z" fill="white"/>
<path d="M202.035 512.652C202.019 512.652 201.997 512.652 201.982 512.652L158.564 512.032C156.124 511.994 154.153 509.982 154.062 507.448C153.798 499.71 156.744 491.563 158.02 488.423C158.579 487.047 159.878 486.199 161.306 486.192L176.103 486.404C176.942 486.419 177.75 486.616 178.505 486.986C181.33 488.393 191.157 493.355 198.885 498.257C204.021 501.51 205.622 505.148 206.068 507.622C206.302 508.908 205.947 510.217 205.116 511.208C204.338 512.123 203.22 512.652 202.035 512.652ZM161.268 488.038C160.603 488.038 160.007 488.461 159.742 489.112C158.511 492.145 155.671 499.997 155.92 507.38C155.973 508.923 157.151 510.156 158.594 510.171L202.012 510.792C202.669 510.792 203.281 510.512 203.711 509.997C204.187 509.43 204.391 508.681 204.255 507.94C203.711 504.914 201.521 502.108 197.903 499.815C190.251 494.967 180.499 490.035 177.69 488.643C177.183 488.393 176.64 488.257 176.081 488.249L161.283 488.038C161.283 488.038 161.276 488.038 161.268 488.038Z" fill="black"/>
<path d="M204.95 506.949C204.965 506.949 204.98 506.964 204.988 506.979C205.064 507.251 205.124 507.524 205.169 507.781C205.539 509.854 203.999 511.752 201.997 511.722L158.579 511.102C156.645 511.071 155.059 509.453 154.991 507.41C154.976 507.032 154.976 506.646 154.984 506.268C154.984 506.245 154.999 506.23 155.021 506.23L204.95 506.949Z" fill="white"/>
<path d="M202.035 512.652C202.019 512.652 201.997 512.652 201.982 512.652L158.564 512.032C156.124 511.994 154.153 509.982 154.062 507.448C154.047 507.055 154.047 506.661 154.047 506.268C154.047 506.018 154.16 505.754 154.342 505.58C154.523 505.406 154.78 505.292 155.036 505.315L204.95 506.034C205.366 506.041 205.758 506.344 205.864 506.745C205.947 507.047 206.015 507.342 206.068 507.63C206.302 508.923 205.947 510.224 205.116 511.215C204.338 512.123 203.22 512.645 202.035 512.652ZM155.905 507.168C155.905 507.236 155.905 507.312 155.913 507.38C155.966 508.923 157.144 510.156 158.587 510.171L202.004 510.791C202.662 510.791 203.273 510.512 203.704 509.997C204.18 509.43 204.384 508.681 204.248 507.94C204.24 507.909 204.24 507.887 204.233 507.857L155.905 507.168Z" fill="black"/>
<path d="M175.748 497.244C175.499 497.244 175.257 497.145 175.076 496.949C174.729 496.578 174.744 495.988 175.114 495.64L179.457 491.563C179.827 491.215 180.416 491.23 180.764 491.608C181.111 491.979 181.096 492.569 180.726 492.917L176.383 496.994C176.201 497.16 175.975 497.244 175.748 497.244Z" fill="black"/>
<path d="M180.726 499.815C180.484 499.815 180.243 499.725 180.061 499.536C179.706 499.172 179.714 498.582 180.076 498.227L184.427 493.991C184.79 493.635 185.379 493.643 185.734 494.006C186.089 494.369 186.082 494.959 185.719 495.315L181.368 499.551C181.187 499.732 180.953 499.815 180.726 499.815Z" fill="black"/>
<path d="M104.556 413.437C104.556 413.429 104.556 413.429 104.564 413.429C104.979 413.119 136.243 390.433 146.357 393.278C163.64 398.142 160.279 449.603 159.916 463.211C159.569 476.464 103.015 435.518 101.074 432.03C99.1629 428.589 104.443 413.762 104.556 413.437Z" fill="#3039C3"/>
<path d="M159.342 459.792C159.402 459.845 159.455 459.89 159.508 459.943C170.347 469.633 174.985 477.387 174.215 489.785C173.46 501.911 156.056 514.778 100.303 508.462C97.6144 508.288 94.9254 508.106 92.2287 507.932L46.8848 507.221V474.664C46.8848 474.664 68.7901 472.788 97.5087 474.157C98.6644 474.21 98.8683 472.53 97.7353 472.319C83.5195 469.618 65.2173 465.427 59.5068 460.632C47.5118 450.556 48.7808 435.238 51.3792 424.33C58.9629 392.491 106.293 425.729 106.618 425.812C106.716 425.865 113.024 429.534 121.355 434.572L159.342 459.792Z" fill="#3039C3"/>
<path d="M133.396 481.025C133.229 481.025 133.071 480.98 132.92 480.889C132.814 480.829 122.413 474.739 97.6144 474.157C97.1008 474.142 96.7004 473.718 96.708 473.211C96.7231 472.704 97.131 472.303 97.6295 472.303C97.6371 472.303 97.6446 472.303 97.6522 472.303C123.032 472.901 133.441 479.043 133.871 479.301C134.31 479.565 134.445 480.133 134.181 480.571C134.015 480.866 133.705 481.025 133.396 481.025Z" fill="#CADDFF"/>
<path d="M156.245 458.196C156.049 458.196 155.852 458.135 155.686 458.007C147.762 451.94 135.798 443.15 123.47 436.932C123.017 436.705 122.828 436.145 123.062 435.692C123.289 435.238 123.848 435.056 124.301 435.283C136.764 441.569 148.82 450.427 156.811 456.539C157.219 456.849 157.295 457.432 156.985 457.84C156.796 458.067 156.517 458.196 156.245 458.196Z" fill="#CADDFF"/>
<path d="M99.314 305.099C104.828 299.735 129.234 281.535 173.497 288.593C174.17 288.699 174.865 288.593 175.469 288.275C178.513 286.672 188.514 281.838 194.36 284.13C201.128 286.785 215.631 295.174 193.998 295.484C193.484 295.492 193.303 296.173 193.748 296.43C195.471 297.443 197.82 299.039 197.412 299.925C196.445 302.012 185.198 300.325 178.573 299.198C171.949 298.071 169.381 296.952 152.695 302.292C142.415 305.583 128.599 317.482 123.055 322.209C123.047 322.217 98.7097 305.681 99.314 305.099Z" fill="white"/>
<path d="M123.108 323.374L122.526 322.981C98.5058 306.664 98.4227 305.757 98.3774 305.22L98.3396 304.781L98.6644 304.441C101.263 301.914 125.419 280 173.641 287.685C174.132 287.761 174.615 287.685 175.038 287.466C178.936 285.416 188.642 280.907 194.7 283.283C195.206 283.479 207.118 288.215 206.31 292.67C205.894 294.97 202.42 296.157 195.418 296.392C197.91 298.018 198.756 299.229 198.25 300.333C197.54 301.861 194.647 302.897 178.415 300.129C177.924 300.046 177.455 299.962 177.01 299.879C171.345 298.865 168.217 298.313 152.974 303.185C143.109 306.339 129.747 317.724 124.044 322.588L123.108 323.374ZM100.591 305.174C103.249 307.459 115.108 315.696 122.979 321.052C128.848 316.052 142.271 304.66 152.4 301.415C168.081 296.399 171.556 297.02 177.319 298.049C177.765 298.132 178.226 298.215 178.717 298.291C192.782 300.689 195.803 299.985 196.437 299.622C196.226 299.319 195.516 298.563 193.265 297.239C192.706 296.906 192.442 296.263 192.608 295.635C192.774 295.008 193.325 294.576 193.975 294.569C203.613 294.433 204.414 292.685 204.482 292.337C204.769 290.764 199.776 287.269 194.02 285.007C188.529 282.852 178.755 287.602 175.892 289.107C175.114 289.516 174.23 289.66 173.346 289.516C128.72 282.398 105.244 300.968 100.591 305.174Z" fill="black"/>
<path d="M163.67 312.754C163.67 312.754 183.506 323.39 192.57 322.482C205.328 321.196 219.438 282.254 220.42 279.576C221.402 276.898 224.159 262.072 228.094 257.745C231.078 254.462 233.88 247.866 235.066 244.871C235.542 243.668 236.856 242.957 238.08 243.358C239.16 243.713 239.961 244.734 238.881 247.412C237.627 250.506 236.124 254.311 235.081 256.959C234.749 257.791 235.663 258.555 236.373 258.04C238.027 256.845 240.112 255.741 241.479 256.512C244.04 257.957 245.415 267.632 241.283 274.432C237.151 281.233 232.611 279.637 231.229 282.927C229.854 286.225 218.418 329.025 213.72 336.431C206.967 347.074 163.308 348.284 156.222 348.08C149.145 347.861 163.67 312.754 163.67 312.754Z" fill="white"/>
<path d="M158.103 349.018C157.333 349.018 156.698 349.01 156.2 348.995C155.308 348.973 154.576 348.557 154.085 347.8C150.58 342.376 161.548 315.447 162.809 312.398L163.202 311.453L164.101 311.937C164.297 312.043 183.793 322.421 192.472 321.559C201.332 320.666 212.572 298.283 219.498 279.387L219.544 279.259C219.77 278.638 220.125 277.224 220.571 275.431C221.961 269.864 224.295 260.537 227.407 257.117C230.323 253.918 233.133 247.246 234.198 244.523C234.862 242.828 236.69 241.928 238.36 242.473C239.145 242.73 239.727 243.221 240.036 243.902C240.49 244.871 240.384 246.134 239.727 247.753C238.503 250.778 237.023 254.523 235.98 257.17C238.496 255.385 240.497 254.893 241.925 255.695C243.201 256.414 243.904 258.222 244.266 259.614C245.324 263.683 245.06 269.985 242.068 274.909C239.538 279.069 236.796 280.302 234.787 281.203C233.299 281.876 232.498 282.269 232.075 283.283C231.697 284.183 230.421 288.563 228.804 294.115C224.461 309.025 217.905 331.552 214.49 336.93C207.957 347.24 169.35 349.018 158.103 349.018ZM164.138 314.04C159.546 325.318 153.458 343.413 155.641 346.786C155.799 347.028 155.973 347.127 156.26 347.134C166.994 347.445 206.854 345.523 212.949 335.916C216.22 330.765 222.996 307.489 227.052 293.578C228.812 287.542 229.975 283.555 230.391 282.549C231.116 280.817 232.543 280.174 234.054 279.493C235.935 278.646 238.277 277.594 240.512 273.926C243.209 269.493 243.436 263.63 242.506 260.068C242.068 258.381 241.464 257.533 241.049 257.299C240.308 256.883 238.813 257.42 236.94 258.774C236.297 259.243 235.444 259.228 234.817 258.736C234.167 258.229 233.941 257.375 234.243 256.603C235.293 253.94 236.796 250.128 238.042 247.049C238.632 245.597 238.511 244.939 238.39 244.674C238.329 244.545 238.201 244.356 237.816 244.228C237.091 243.993 236.252 244.424 235.95 245.196C234.575 248.691 231.811 255.052 228.804 258.358C226.01 261.429 223.751 270.469 222.399 275.87C221.923 277.783 221.576 279.168 221.311 279.886L221.266 280.015C217.648 289.879 204.897 322.157 192.691 323.39C184.435 324.229 168.187 316.143 164.138 314.04Z" fill="black"/>
<path d="M99.0874 300.901L102.781 272.375L119.021 280.378L120.033 300.205C120.011 304.146 116.763 306.453 116.763 306.453C112.752 309.637 106.973 309.282 102.698 306.491L101.708 305.848C100.047 304.758 99.0572 302.898 99.0874 300.901Z" fill="white"/>
<path d="M110.01 309.66C107.381 309.66 104.647 308.866 102.192 307.262L101.202 306.619C99.2687 305.356 98.1281 303.215 98.1659 300.893C98.1659 300.855 98.1659 300.825 98.1734 300.787L101.867 272.262C101.905 271.966 102.086 271.709 102.351 271.566C102.615 271.422 102.925 271.414 103.197 271.55L119.437 279.554C119.739 279.705 119.935 280 119.95 280.34L120.962 300.167C120.94 304.584 117.45 307.111 117.307 307.217C115.244 308.843 112.676 309.66 110.01 309.66ZM100.009 300.969C100.001 302.633 100.817 304.161 102.207 305.069L103.197 305.712C107.404 308.45 112.744 308.457 116.181 305.727C116.249 305.681 119.082 303.593 119.097 300.197L118.115 280.968L103.521 273.774L100.009 300.969Z" fill="black"/>
<path d="M122.088 243.97C117.299 244.243 123.833 248.464 105.667 245.332C98.4303 244.084 102.894 251.875 101.014 251.558C94.0794 250.378 94.3136 250.415 91.1335 251.656C89.0261 252.48 88.0668 256.648 88.807 259.606C89.789 263.502 93.1579 264.152 96.98 272.178C99.6615 277.821 99.5633 281.445 102.011 282.035C104.481 282.632 105.878 279.236 108.62 279.682C112.178 280.257 112.163 286.316 115.796 288.419C118.085 289.743 123.093 289.902 130.548 285.151C131.756 284.38 132.247 282.852 131.719 281.513C131.039 279.803 130.163 277.64 129.158 275.65C124.362 266.149 120.585 264.311 121.574 261.596C123.085 257.435 130.767 258.842 131.636 255.468C132.542 251.943 128.637 243.6 122.088 243.97Z" fill="#212121"/>
<path d="M107.404 262.957L109.051 265.347C109.829 266.474 110.523 267.655 111.135 268.872C112.283 271.164 114.293 275.098 115.592 277.216C117.488 280.325 127.481 275.113 127.481 275.113L127.882 273.01L129.037 272.375C129.264 272.254 129.46 272.08 129.596 271.86C129.929 271.316 129.853 270.643 129.468 270.189C127.353 267.707 122.889 262.11 120.925 256.845C120.925 256.86 112.948 255.741 107.404 262.957Z" fill="white"/>
<path d="M117.994 279.115C116.597 279.115 115.426 278.729 114.791 277.7C113.469 275.529 111.407 271.497 110.304 269.289C109.715 268.109 109.035 266.959 108.28 265.869L106.633 263.479C106.407 263.146 106.414 262.708 106.664 262.39C112.472 254.84 120.706 255.892 121.046 255.945C121.378 255.99 121.665 256.217 121.786 256.535C123.735 261.739 128.297 267.405 130.163 269.599C130.82 270.37 130.91 271.475 130.374 272.352C130.17 272.693 129.853 272.988 129.468 273.192L128.69 273.615L128.373 275.287C128.32 275.567 128.138 275.802 127.889 275.938C126.613 276.611 121.567 279.115 117.994 279.115ZM108.552 262.995L109.806 264.818C110.607 265.975 111.324 267.201 111.959 268.457C113.054 270.643 115.086 274.622 116.377 276.732C117.291 278.222 122.798 276.437 126.658 274.493L126.975 272.836C127.028 272.564 127.194 272.33 127.436 272.201L128.592 271.565C128.69 271.513 128.765 271.444 128.803 271.384C128.916 271.195 128.901 270.96 128.765 270.802C126.446 268.078 122.33 262.844 120.275 257.73C118.538 257.639 112.91 257.783 108.552 262.995Z" fill="black"/>
<path d="M110.32 271.626C110.32 271.626 106.369 265.869 104.148 268.237C101.935 270.612 106.437 276.838 110.32 271.626Z" fill="white"/>
<path d="M64.7641 349.797C65.3382 357.15 64.8396 380.199 61.1082 387.347C57.4069 394.427 53.3733 400.963 52.0817 419.095C51.9986 420.305 113.152 447.825 120.774 432.832C120.947 432.484 121 432.083 120.887 431.713C120.222 429.496 117.971 419.798 122.405 401.046C125.396 388.414 131.031 377.438 140.632 363.723C140.662 363.685 140.685 363.648 140.707 363.61C141.161 362.815 146.584 353.715 160.822 350.705C161.147 350.637 161.442 350.47 161.653 350.213C163.64 347.853 173.875 334.94 176.934 316.445C177.04 315.802 176.708 315.159 176.118 314.872C172.266 312.996 157.914 306.248 147.422 304.72C135.201 302.935 140.043 305.689 131.311 302.754C130.102 302.345 126.469 299.577 125.638 298.971C120.524 295.235 109.217 300.832 98.4453 296.536C97.1839 296.029 95.8016 295.999 94.4948 296.377C91.2997 297.315 84.9245 298.676 78.6928 298.684C57.7922 298.684 64.1825 342.27 64.7641 349.797Z" fill="#212121"/>
<path d="M71.109 382.014C70.9429 382.014 70.7767 381.969 70.6256 381.878C70.1875 381.613 70.0515 381.046 70.3159 380.607C74.2589 374.124 78.9572 365.062 80.3924 352.422C82.7868 331.211 94.3211 315.424 94.4344 315.265C94.7365 314.857 95.3182 314.766 95.726 315.076C96.1339 315.379 96.2246 315.961 95.9224 316.37C95.8091 316.521 84.5695 331.937 82.2279 352.634C80.7625 365.629 75.9358 374.926 71.8946 381.575C71.7284 381.855 71.4263 382.014 71.109 382.014Z" fill="white"/>
</svg>
