<svg width="68" height="67" viewBox="0 0 68 67" fill="none" xmlns="http://www.w3.org/2000/svg">
<g filter="url(#filter0_d_808_5)">
<ellipse cx="34" cy="29.4643" rx="29.4643" ry="30" transform="rotate(90 34 29.4643)" fill="#F9F9F9"/>
</g>
<g clip-path="url(#clip0_808_5)">
<path d="M41.6397 49L37.5436 49C37.1674 49 36.863 48.7006 36.863 48.3306L36.863 45.9979C35.6582 45.7152 34.5211 45.2453 33.4897 44.6258L31.8115 46.2724C31.5452 46.5343 31.114 46.5343 30.8477 46.2724L27.9521 43.4241C27.6858 43.1622 27.6858 42.7381 27.9521 42.472L29.6261 40.8254C29.2752 40.2599 28.9751 39.6695 28.7299 39.0458C29.8628 39.025 30.9703 38.8878 32.0356 38.6466C33.4474 41.3368 36.2966 43.183 39.5895 43.183C44.2817 43.183 48.0862 39.4408 48.0862 34.8212C48.0862 31.8566 46.5137 29.2495 44.1464 27.7651C44.4846 26.7381 44.7256 25.6653 44.8524 24.5593C45.1398 24.7006 45.4188 24.8545 45.6936 25.0167L47.3675 23.3701C47.6339 23.1081 48.065 23.1081 48.3313 23.3659L51.227 26.2183C51.4933 26.4803 51.4933 26.9044 51.227 27.1663L49.553 28.8171C50.1829 29.8316 50.6605 30.946 50.948 32.1352L53.3194 32.1352C53.6956 32.1352 54 32.4345 54 32.8046L54 36.8337C54 37.2038 53.6956 37.5031 53.3194 37.5031L50.948 37.5031C50.6605 38.6923 50.1829 39.8067 49.553 40.8212L51.227 42.4678C51.4933 42.7298 51.4933 43.1539 51.227 43.42L48.3313 46.2682C48.065 46.5302 47.6339 46.5302 47.3675 46.2682L45.6936 44.6216C44.6622 45.2412 43.5293 45.711 42.3203 45.9938L42.3203 48.3264C42.3203 48.6965 42.0159 49 41.6397 49Z" fill="#3039C3"/>
<path d="M31.4607 37.3534L27.3645 37.3534C26.9883 37.3534 26.684 37.0541 26.684 36.684L26.684 34.3514C25.475 34.0644 24.3379 33.5988 23.3107 32.9751L21.6367 34.6258C21.3704 34.8877 20.9392 34.8877 20.6729 34.6258L17.7773 31.7775C17.511 31.5156 17.511 31.0915 17.7773 30.8295L19.4555 29.183C18.8214 28.1684 18.348 27.0541 18.0563 25.8649L15.6848 25.8649C15.3086 25.8649 15.0043 25.5655 15.0043 25.1954L15.0043 21.1663C15.0043 20.7963 15.3086 20.4969 15.6848 20.4969L18.0563 20.4969C18.348 19.3118 18.8214 18.1892 19.4555 17.1788L17.7731 15.5281C17.5067 15.2661 17.5067 14.842 17.7731 14.5759L20.6687 11.7318C20.935 11.4699 21.3662 11.4699 21.6325 11.7318L23.3064 13.3825C24.3379 12.7588 25.4708 12.2931 26.6797 12.0104L26.6797 9.6736C26.684 9.30353 26.9883 9 27.3645 9L31.4607 9C31.5621 9 31.6594 9.02079 31.7481 9.06653C31.8115 9.15385 31.9003 9.23285 32.0144 9.2869C32.0948 9.39501 32.1413 9.53222 32.1413 9.67775L32.1413 12.0146C33.3502 12.2973 34.4831 12.763 35.5146 13.3867L37.1927 11.736C37.4591 11.474 37.8902 11.474 38.1565 11.736L41.0522 14.58C41.3185 14.842 41.3185 15.2661 41.0522 15.5322L39.374 17.183C40.008 18.1933 40.4815 19.3119 40.7732 20.501L43.1446 20.501C43.5208 20.501 43.8252 20.8004 43.8252 21.1705L43.8252 25.1996C43.8252 25.5655 43.5208 25.869 43.1446 25.869L40.7732 25.869C40.4815 27.0582 40.008 28.1767 39.374 29.1871L41.0522 30.8337C41.3185 31.0956 41.3185 31.5198 41.0522 31.7817L38.1565 34.6299C37.8902 34.8919 37.4591 34.8919 37.1927 34.6299L35.5146 32.9792C34.4831 33.6029 33.3502 34.0686 32.1413 34.3555L32.1413 36.6881C32.1413 37.0541 31.8369 37.3534 31.4607 37.3534ZM29.4105 29.6237C33.0332 29.6237 35.9626 26.738 35.9626 23.1788C35.9626 19.6195 33.029 16.7339 29.4105 16.7339C25.792 16.7339 22.8584 19.6195 22.8584 23.1788C22.8584 26.738 25.792 29.6237 29.4105 29.6237Z" fill="#3039C3"/>
</g>
<defs>
<filter id="filter0_d_808_5" x="0" y="0" width="68" height="66.9286" filterUnits="userSpaceOnUse" color-interpolation-filters="sRGB">
<feFlood flood-opacity="0" result="BackgroundImageFix"/>
<feColorMatrix in="SourceAlpha" type="matrix" values="0 0 0 0 0 0 0 0 0 0 0 0 0 0 0 0 0 0 127 0" result="hardAlpha"/>
<feOffset dy="4"/>
<feGaussianBlur stdDeviation="2"/>
<feComposite in2="hardAlpha" operator="out"/>
<feColorMatrix type="matrix" values="0 0 0 0 0 0 0 0 0 0 0 0 0 0 0 0 0 0 0.25 0"/>
<feBlend mode="normal" in2="BackgroundImageFix" result="effect1_dropShadow_808_5"/>
<feBlend mode="normal" in="SourceGraphic" in2="effect1_dropShadow_808_5" result="shape"/>
</filter>
<clipPath id="clip0_808_5">
<rect width="40" height="39" fill="white" transform="translate(54 9) rotate(90)"/>
</clipPath>
</defs>
</svg>
