<svg width="562" height="561" viewBox="0 0 562 561" fill="none" xmlns="http://www.w3.org/2000/svg">
<path d="M222.532 16.6408C210.308 20.4461 156.083 38.148 101.932 85.1165C88.8154 96.492 35.7939 142.487 13.137 204.312C-25.4155 309.557 20.7231 469.672 153.615 534.011C308.413 608.955 503.948 516.708 548.545 393.254C568.322 338.499 569.214 247.698 519.391 187.827C479.29 139.642 410.711 116.742 413.368 71.1659C414.646 49.2126 431.218 43.1429 426.62 29.3207C415.721 -3.46737 308.907 -10.2737 222.532 16.6408Z" fill="#77D6D3"/>
<path d="M512.42 87.6579H48.762C38.5255 87.6579 30.2295 95.9513 30.2295 106.184V423.967C30.2295 434.2 38.5255 442.494 48.762 442.494H512.42C522.656 442.494 530.952 434.2 530.952 423.967V106.184C530.946 95.9513 522.65 87.6579 512.42 87.6579Z" fill="white"/>
<path d="M512.42 443.508H48.762C37.9846 443.508 29.2153 434.741 29.2153 423.967V106.184C29.2153 95.4105 37.9846 86.6441 48.762 86.6441H512.42C523.197 86.6441 531.967 95.4105 531.967 106.184V423.967C531.96 434.741 523.197 443.508 512.42 443.508ZM48.762 88.6718C39.1002 88.6718 31.2436 96.5258 31.2436 106.184V423.967C31.2436 433.619 39.1002 441.48 48.762 441.48H512.42C522.075 441.48 529.938 433.626 529.938 423.967V106.184C529.938 96.5325 522.082 88.6718 512.42 88.6718H48.762Z" fill="black"/>
<path d="M48.762 435.248C42.5417 435.248 37.4775 430.186 37.4775 423.967V106.184C37.4775 99.9662 42.5417 94.9036 48.762 94.9036H512.42C518.64 94.9036 523.704 99.9662 523.704 106.184V423.967C523.704 430.186 518.64 435.248 512.42 435.248H48.762Z" fill="#99B9FF"/>
<path d="M505.267 427.036H55.9153C50.2765 427.036 45.6856 422.447 45.6856 416.809V340.459C45.6856 339.898 46.1386 339.446 46.6998 339.446C47.261 339.446 47.714 339.898 47.714 340.459V416.809C47.714 421.331 51.3921 425.008 55.9153 425.008H505.267C509.79 425.008 513.468 421.331 513.468 416.809V291.605C513.468 291.044 513.921 290.591 514.482 290.591C515.043 290.591 515.496 291.044 515.496 291.605V416.816C515.49 422.453 510.905 427.036 505.267 427.036Z" fill="black"/>
<path d="M514.475 173.133C513.914 173.133 513.461 172.68 513.461 172.119V150.524C513.461 149.963 513.914 149.51 514.475 149.51C515.036 149.51 515.49 149.963 515.49 150.524V172.119C515.49 172.68 515.036 173.133 514.475 173.133Z" fill="black"/>
<path d="M466.714 12.1663C467.113 9.08415 464.713 6.34674 461.609 6.34674H186.015C184.44 6.34674 183.108 7.52281 182.905 9.09091L160.681 175.532C160.451 177.235 161.776 178.743 163.493 178.743H441.738C443.313 178.743 444.645 177.567 444.848 175.999L466.714 12.1663Z" fill="white"/>
<path d="M462.813 42.4265C462.765 42.4265 462.725 42.4265 462.678 42.4197C462.123 42.3454 461.731 41.8385 461.805 41.2775L463.016 32.1798C463.09 31.6256 463.597 31.2335 464.158 31.3079C464.713 31.3822 465.105 31.8892 465.03 32.4502L463.82 41.5478C463.746 42.0547 463.313 42.4265 462.813 42.4265Z" fill="black"/>
<path d="M453.219 114.349C453.171 114.349 453.131 114.349 453.083 114.343C452.529 114.268 452.137 113.761 452.211 113.2L460.169 53.5383C460.244 52.9841 460.757 52.5988 461.312 52.6664C461.866 52.7408 462.258 53.2477 462.184 53.8087L454.226 113.471C454.152 113.978 453.719 114.349 453.219 114.349Z" fill="black"/>
<path d="M461.609 6.34674C464.713 6.34674 467.113 9.07739 466.714 12.1663L464.625 25.9209L180.241 25.8736L182.898 9.09091C183.101 7.52281 184.433 6.34674 186.008 6.34674H461.609Z" fill="#3039C3"/>
<path d="M301.747 17.0057C301.997 15.0456 300.469 13.3153 298.495 13.3153H196.616C194.967 13.3153 193.574 14.5387 193.364 16.1744C193.114 18.1345 194.642 19.8648 196.616 19.8648H298.495C300.144 19.8648 301.537 18.6414 301.747 17.0057Z" fill="#CADDFF"/>
<path d="M426.823 17.0057C427.073 15.0456 425.545 13.3153 423.571 13.3153H414.267C412.617 13.3153 411.225 14.5387 411.015 16.1744C410.765 18.1345 412.293 19.8648 414.267 19.8648H423.571C425.227 19.8648 426.62 18.6414 426.823 17.0057Z" fill="#CADDFF"/>
<path d="M439.291 44.0216C439.466 42.663 438.412 41.4599 437.046 41.4599H299.651C298.954 41.4599 298.373 41.9736 298.278 42.6698L289.577 105.542C289.475 106.293 290.057 106.955 290.814 106.955H429.372C430.068 106.955 430.65 106.441 430.744 105.745L439.291 44.0216Z" fill="#CADDFF"/>
<path d="M421.995 156.674H336.216C335.566 156.674 334.944 156.391 334.512 155.904C334.079 155.411 333.883 154.762 333.971 154.113L338.839 117.587C338.994 116.397 340.015 115.498 341.212 115.498H425.829C426.769 115.498 427.668 115.904 428.29 116.614C428.912 117.323 429.203 118.27 429.081 119.202V119.209L424.375 154.593C424.22 155.776 423.199 156.674 421.995 156.674ZM341.212 117.526C341.03 117.526 340.874 117.661 340.847 117.851L335.979 154.383C335.965 154.471 336.006 154.532 336.033 154.566C336.067 154.599 336.121 154.647 336.209 154.647H421.988C422.171 154.647 422.327 154.512 422.354 154.322L427.059 118.932C427.107 118.567 426.999 118.216 426.755 117.945C426.512 117.675 426.18 117.519 425.822 117.519H341.212V117.526Z" fill="#CADDFF"/>
<path d="M272.68 107.969H185.447C184.798 107.969 184.176 107.685 183.743 107.198C183.31 106.705 183.114 106.056 183.202 105.407L191.904 42.5279C192.053 41.345 193.08 40.4461 194.277 40.4461H280.348C281.287 40.4461 282.187 40.8516 282.809 41.5613C283.431 42.271 283.721 43.2173 283.6 44.15V44.1568L275.06 105.887C274.905 107.07 273.884 107.969 272.68 107.969ZM194.277 42.4738C194.095 42.4738 193.939 42.609 193.912 42.7982L185.21 105.684C185.197 105.765 185.237 105.826 185.264 105.867C185.298 105.901 185.352 105.948 185.44 105.948H272.68C272.863 105.948 273.018 105.813 273.045 105.623L281.585 43.8932C281.632 43.5282 281.524 43.1767 281.281 42.9064C281.037 42.636 280.706 42.4805 280.348 42.4805H194.277V42.4738Z" fill="#CADDFF"/>
<path d="M548.153 255.627L561.966 152.112C562.25 149.902 560.533 147.942 558.308 147.942H360.786C359.657 147.942 358.697 148.787 358.555 149.909L344.437 255.627H548.153Z" fill="white"/>
<path d="M558.308 147.942C560.533 147.942 562.25 149.902 561.966 152.112L560.472 161.974L356.648 161.94L358.555 149.909C358.697 148.787 359.657 147.942 360.786 147.942H558.308Z" fill="#3039C3"/>
<path d="M443.733 155.579C443.915 154.174 442.82 152.937 441.4 152.937H368.385C367.202 152.937 366.208 153.815 366.053 154.985C365.87 156.391 366.966 157.627 368.385 157.627H441.4C442.583 157.634 443.584 156.756 443.733 155.579Z" fill="#CADDFF"/>
<path d="M344.451 255.12L342.632 269.118C342.47 270.334 343.416 271.247 344.647 271.247H544.069C545.198 271.247 546.158 270.578 546.3 269.456L548.167 255.12H344.451Z" fill="white"/>
<path d="M549.823 155.579C550.006 154.174 548.91 152.937 547.49 152.937H540.824C539.641 152.937 538.647 153.815 538.491 154.985C538.309 156.391 539.404 157.627 540.824 157.627H547.49C548.674 157.634 549.674 156.756 549.823 155.579Z" fill="#CADDFF"/>
<path d="M350.177 213.653C350.13 213.653 350.09 213.653 350.042 213.646C349.488 213.572 349.096 213.065 349.17 212.504L354.369 173.565C354.444 173.011 354.951 172.619 355.505 172.693C356.06 172.768 356.452 173.275 356.378 173.829L351.178 212.768C351.117 213.281 350.678 213.653 350.177 213.653Z" fill="black"/>
<path d="M346.614 240.372C346.567 240.372 346.526 240.372 346.479 240.365C345.925 240.29 345.533 239.784 345.607 239.223L348.237 219.52C348.311 218.966 348.818 218.58 349.373 218.648C349.927 218.722 350.319 219.229 350.245 219.79L347.615 239.493C347.547 240 347.115 240.372 346.614 240.372Z" fill="black"/>
<path d="M544.069 272.518H539.783C539.221 272.518 538.768 272.065 538.768 271.504C538.768 270.943 539.221 270.49 539.783 270.49H544.069C544.691 270.49 545.212 270.023 545.293 269.408L553.785 205.779C553.859 205.225 554.373 204.833 554.928 204.907C555.482 204.981 555.874 205.488 555.8 206.049L547.308 269.672C547.091 271.287 545.705 272.518 544.069 272.518Z" fill="black"/>
<path d="M555.678 200.243C555.631 200.243 555.59 200.243 555.543 200.236C554.989 200.162 554.596 199.655 554.671 199.101L557.206 180.122C557.281 179.567 557.794 179.175 558.349 179.25C558.903 179.324 559.295 179.831 559.221 180.392L556.686 199.371C556.618 199.871 556.179 200.243 555.678 200.243Z" fill="black"/>
<path d="M524.793 197.648C527.761 197.648 530.046 200.257 529.668 203.204L528.39 211.639C527.977 214.349 525.652 216.35 522.907 216.35L381.32 216.309C380.468 216.309 379.663 215.938 379.109 215.289C378.554 214.64 378.318 213.788 378.446 212.95L380.454 200.27C380.65 198.77 381.921 197.648 383.429 197.648H524.793Z" fill="#99B9FF"/>
<path d="M390.055 210.801C387.148 210.801 384.775 208.435 384.775 205.522C384.775 202.616 387.141 200.243 390.055 200.243C392.963 200.243 395.336 202.609 395.336 205.522C395.336 208.435 392.969 210.801 390.055 210.801ZM390.055 202.271C388.264 202.271 386.803 203.731 386.803 205.522C386.803 207.313 388.264 208.773 390.055 208.773C391.847 208.773 393.307 207.313 393.307 205.522C393.307 203.731 391.847 202.271 390.055 202.271Z" fill="white"/>
<path d="M397.236 214.363C396.979 214.363 396.715 214.261 396.519 214.065L392.009 209.557C391.61 209.158 391.61 208.516 392.009 208.124C392.408 207.725 393.05 207.725 393.443 208.124L397.952 212.633C398.351 213.031 398.351 213.673 397.952 214.065C397.756 214.261 397.493 214.363 397.236 214.363Z" fill="white"/>
<path d="M267.799 226.407L281.571 123.197C281.855 121.007 280.151 119.067 277.947 119.067H82.1557C81.0333 119.067 80.0867 119.899 79.9447 121.014L65.8746 226.407H267.799Z" fill="white"/>
<path d="M277.947 119.06C280.151 119.06 281.855 121 281.571 123.19L280.091 132.964L78.0516 132.93L79.938 121.007C80.08 119.892 81.0266 119.06 82.1489 119.06H277.947Z" fill="#CADDFF"/>
<path d="M65.9625 225.536L64.1573 239.243C63.995 240.453 64.9348 241.189 66.1519 241.189H263.83C264.952 241.189 265.899 240.689 266.041 239.581L267.887 225.536H65.9625Z" fill="white"/>
<path d="M74.2112 164.961C74.1639 164.961 74.1233 164.961 74.076 164.954C73.5216 164.88 73.1294 164.373 73.2038 163.812L74.3194 155.444C74.3938 154.89 74.9076 154.498 75.4621 154.572C76.0165 154.647 76.4086 155.154 76.3343 155.715L75.2187 164.082C75.1511 164.589 74.7116 164.961 74.2112 164.961Z" fill="black"/>
<path d="M76.2869 149.395C76.2396 149.395 76.199 149.395 76.1517 149.388C75.5973 149.314 75.2051 148.807 75.2795 148.253L78.9306 120.885C79.1402 119.277 80.5195 118.06 82.1489 118.06H241.579C242.14 118.06 242.593 118.513 242.593 119.074C242.593 119.635 242.14 120.088 241.579 120.088H82.1489C81.5404 120.088 81.0198 120.547 80.9454 121.149L77.2943 148.523C77.2267 149.023 76.7873 149.395 76.2869 149.395Z" fill="black"/>
<path d="M272.917 189.091C272.87 189.091 272.829 189.091 272.782 189.084C272.227 189.01 271.835 188.503 271.91 187.942L278.346 139.682C278.421 139.128 278.928 138.736 279.489 138.81C280.043 138.885 280.435 139.392 280.361 139.946L273.924 188.205C273.85 188.719 273.417 189.091 272.917 189.091Z" fill="black"/>
<path d="M268.921 219.013C268.874 219.013 268.833 219.013 268.786 219.006C268.231 218.932 267.839 218.425 267.914 217.871L270.659 197.296C270.733 196.742 271.247 196.357 271.801 196.424C272.356 196.499 272.748 197.006 272.674 197.567L269.929 218.141C269.861 218.648 269.421 219.013 268.921 219.013Z" fill="black"/>
<path d="M232.917 156.154H115.394L116.192 150.267H233.709L232.917 156.154Z" fill="#CADDFF"/>
<path d="M258.272 165.867H138.538L139.335 159.98H259.07L258.272 165.867Z" fill="#99B9FF"/>
<path d="M242.532 175.579H180.64L181.438 169.686H243.323L242.532 175.579Z" fill="#CADDFF"/>
<path d="M228.996 185.285H111.479L112.27 179.398H229.787L228.996 185.285Z" fill="#99B9FF"/>
<path d="M254.357 194.998H134.623L135.414 189.111H255.148L254.357 194.998Z" fill="#99B9FF"/>
<path d="M222.87 214.417H175.42L176.211 208.53H223.661L222.87 214.417Z" fill="#CADDFF"/>
<path d="M235.75 224.123H188.3L189.091 218.236H236.542L235.75 224.123Z" fill="#99B9FF"/>
<path d="M253.052 204.711H176.725L177.516 198.817H253.844L253.052 204.711Z" fill="#99B9FF"/>
<path d="M96.4895 224.015H85.0427L85.8 218.357H97.2467L96.4895 224.015Z" fill="#CADDFF"/>
<path d="M106.043 156.161H94.1096L94.9006 150.267H106.834L106.043 156.161Z" fill="#CADDFF"/>
<path d="M107.247 147.232H95.313L96.1041 141.345H108.038L107.247 147.232Z" fill="#CADDFF"/>
<path d="M104.644 165.867H92.8046L93.5957 159.98H105.435L104.644 165.867Z" fill="#CADDFF"/>
<path d="M102.94 175.579H91.7025L92.4936 169.692H103.731L102.94 175.579Z" fill="#CADDFF"/>
<path d="M101.696 185.292H90.2556L91.0467 179.398H102.487L101.696 185.292Z" fill="#CADDFF"/>
<path d="M100.33 194.998H88.8899L89.681 189.111H101.121L100.33 194.998Z" fill="#CADDFF"/>
<path d="M98.0514 214.032H86.4761L87.2672 208.138H98.8424L98.0514 214.032Z" fill="#CADDFF"/>
<path d="M99.0723 204.319H87.7337L88.5248 198.432H99.8633L99.0723 204.319Z" fill="#CADDFF"/>
<path d="M209.104 58.1345H92.1488C87.8419 58.1345 84.3531 61.6221 84.3531 65.9276C84.3531 70.2331 87.8419 73.7208 92.1488 73.7208H209.104C213.411 73.7208 216.9 70.2331 216.9 65.9276C216.907 61.6221 213.411 58.1345 209.104 58.1345Z" fill="#5479F7"/>
<path d="M131.715 33.3018H67.1187C63.1228 33.3018 59.8774 36.5393 59.8774 40.5407C59.8774 44.5353 63.1161 47.7796 67.1187 47.7796H131.715C135.711 47.7796 138.957 44.542 138.957 40.5407C138.957 36.5461 135.711 33.3018 131.715 33.3018Z" fill="#5479F7"/>
<path d="M160.946 42.216C161.865 38.3252 159.455 34.4263 155.563 33.5076C151.671 32.5889 147.771 34.9982 146.852 38.889C145.933 42.7798 148.343 46.6787 152.235 47.5975C156.127 48.5162 160.027 46.1068 160.946 42.216Z" fill="#5479F7"/>
<path d="M353.362 296.397H279.002C276.264 296.397 274.046 298.614 274.046 301.352C274.046 304.089 276.264 306.306 279.002 306.306H353.362C356.1 306.306 358.318 304.089 358.318 301.352C358.318 298.614 356.1 296.397 353.362 296.397Z" fill="#3039C3"/>
<path d="M304.161 280.615H263.093C260.551 280.615 258.489 282.676 258.489 285.218C258.489 287.759 260.551 289.821 263.093 289.821H304.161C306.703 289.821 308.765 287.759 308.765 285.218C308.765 282.676 306.703 280.615 304.161 280.615Z" fill="#3039C3"/>
<path d="M320.638 290.213C323.397 290.213 325.634 287.976 325.634 285.218C325.634 282.459 323.397 280.223 320.638 280.223C317.878 280.223 315.641 282.459 315.641 285.218C315.641 287.976 317.878 290.213 320.638 290.213Z" fill="#3039C3"/>
<path d="M132.317 11.8892C131.756 11.8892 131.303 11.4363 131.303 10.8753V7.20514C131.303 6.64414 131.756 6.19128 132.317 6.19128C132.878 6.19128 133.331 6.64414 133.331 7.20514V10.8753C133.331 11.4363 132.878 11.8892 132.317 11.8892Z" fill="black"/>
<path d="M132.317 20.4393C131.756 20.4393 131.303 19.9865 131.303 19.4255V15.7553C131.303 15.1943 131.756 14.7415 132.317 14.7415C132.878 14.7415 133.331 15.1943 133.331 15.7553V19.4255C133.331 19.9797 132.878 20.4393 132.317 20.4393Z" fill="black"/>
<path d="M129.876 14.3292H126.205C125.644 14.3292 125.191 13.8763 125.191 13.3153C125.191 12.7543 125.644 12.3015 126.205 12.3015H129.876C130.438 12.3015 130.891 12.7543 130.891 13.3153C130.891 13.8763 130.438 14.3292 129.876 14.3292Z" fill="black"/>
<path d="M138.423 14.3292H134.751C134.19 14.3292 133.737 13.8763 133.737 13.3153C133.737 12.7543 134.19 12.3015 134.751 12.3015H138.423C138.984 12.3015 139.437 12.7543 139.437 13.3153C139.437 13.8763 138.984 14.3292 138.423 14.3292Z" fill="black"/>
<path d="M530.946 71.2538C530.384 71.2538 529.931 70.8009 529.931 70.2399V64.9949C529.931 64.4339 530.384 63.981 530.946 63.981C531.507 63.981 531.96 64.4339 531.96 64.9949V70.2399C531.96 70.7942 531.507 71.2538 530.946 71.2538Z" fill="black"/>
<path d="M530.946 83.4673C530.384 83.4673 529.931 83.0145 529.931 82.4535V77.2085C529.931 76.6475 530.384 76.1946 530.946 76.1946C531.507 76.1946 531.96 76.6475 531.96 77.2085V82.4535C531.96 83.0077 531.507 83.4673 530.946 83.4673Z" fill="black"/>
<path d="M527.464 74.7347H522.217C521.656 74.7347 521.203 74.2818 521.203 73.7208C521.203 73.1598 521.656 72.707 522.217 72.707H527.464C528.025 72.707 528.478 73.1598 528.478 73.7208C528.478 74.2818 528.025 74.7347 527.464 74.7347Z" fill="black"/>
<path d="M539.681 74.7347H534.434C533.873 74.7347 533.42 74.2818 533.42 73.7208C533.42 73.1598 533.873 72.707 534.434 72.707H539.681C540.242 72.707 540.695 73.1598 540.695 73.7208C540.695 74.2818 540.242 74.7347 539.681 74.7347Z" fill="black"/>
<path d="M482.961 64.1635C482.332 64.1635 481.704 64.0486 481.102 63.8121C479.79 63.3051 478.756 62.3048 478.195 60.9936C477.045 58.3305 478.242 55.2078 480.859 54.0318C482.123 53.464 483.529 53.4234 484.821 53.9304C486.132 54.4373 487.167 55.4376 487.728 56.7489C488.877 59.4119 487.681 62.5346 485.064 63.7107C484.395 64.0081 483.678 64.1635 482.961 64.1635ZM481.69 55.877C480.074 56.6002 479.344 58.5333 480.054 60.1892C480.399 60.9936 481.034 61.6086 481.839 61.9195C482.623 62.2237 483.468 62.2034 484.239 61.8587C485.855 61.1355 486.585 59.2024 485.875 57.5464C485.531 56.7421 484.895 56.1271 484.09 55.8161C483.306 55.512 482.454 55.5323 481.69 55.877Z" fill="black"/>
<path d="M513.137 41.4667C512.589 41.4667 512.041 41.3653 511.514 41.1625C510.371 40.7164 509.472 39.8513 508.985 38.7157C507.985 36.3974 509.026 33.687 511.304 32.6664C512.406 32.173 513.63 32.1392 514.753 32.5785C515.895 33.0246 516.794 33.8898 517.281 35.0253C518.282 37.3437 517.241 40.054 514.962 41.0747C514.381 41.3315 513.759 41.4667 513.137 41.4667ZM513.13 34.2886C512.792 34.2886 512.447 34.3629 512.129 34.5049C510.858 35.0726 510.283 36.6002 510.845 37.9047C511.115 38.54 511.615 39.0199 512.244 39.27C512.859 39.5066 513.529 39.493 514.13 39.2227C515.402 38.6549 515.976 37.1274 515.415 35.8229C515.145 35.1875 514.644 34.7076 514.016 34.4576C513.732 34.3427 513.434 34.2886 513.13 34.2886Z" fill="black"/>
<path d="M42.6025 44.6772C41.9196 44.6772 41.2435 44.5488 40.5877 44.2987C39.1678 43.7445 38.0454 42.663 37.4369 41.2436C36.1929 38.3575 37.4843 34.9713 40.324 33.7006C41.6965 33.0855 43.2178 33.0449 44.6173 33.5924C46.0372 34.1466 47.1596 35.2281 47.7681 36.6475C49.0121 39.5336 47.7207 42.9199 44.881 44.1906C44.1508 44.515 43.3733 44.6772 42.6025 44.6772ZM41.1488 35.5525C39.3165 36.3771 38.4849 38.5671 39.2963 40.4461C39.6884 41.3585 40.4119 42.0547 41.3179 42.413C42.2036 42.7577 43.1704 42.7306 44.0426 42.3454C45.8749 41.5208 46.7066 39.3308 45.8952 37.4518C45.5031 36.5393 44.7796 35.8432 43.8736 35.4849C42.9879 35.1335 42.021 35.1605 41.1488 35.5525Z" fill="black"/>
<path d="M94.6707 260.689C94.3665 260.689 94.0622 260.554 93.8661 260.29C93.5281 259.844 93.6092 259.209 94.0554 258.871L95.57 257.709C96.9628 256.647 98.6328 254.484 98.6463 254.464C98.9911 254.018 99.6267 253.937 100.066 254.282C100.512 254.62 100.594 255.262 100.255 255.701C100.181 255.796 98.4097 258.094 96.8005 259.324L95.286 260.486C95.1034 260.622 94.8871 260.689 94.6707 260.689Z" fill="black"/>
<path d="M92.0879 257.796C91.7228 257.796 91.3712 257.6 91.1887 257.249C90.9318 256.756 91.1211 256.14 91.6214 255.884L93.3185 255.005C94.8736 254.194 96.8884 252.355 96.9087 252.335C97.3211 251.957 97.9634 251.984 98.3421 252.396C98.7207 252.808 98.6937 253.45 98.2812 253.829C98.1933 253.91 96.05 255.87 94.2515 256.803L92.5545 257.681C92.4057 257.763 92.2502 257.796 92.0879 257.796Z" fill="black"/>
<path d="M33.8738 226.32C29.2288 226.921 3.96208 232.031 1.81201 260.486C1.76468 261.142 2.10275 261.764 2.67069 262.095L17.2817 270.503C17.8294 270.821 18.1607 271.409 18.1404 272.038C17.9781 277.242 17.1397 300.892 14.9356 310.828C13.2114 318.574 12.0147 324.887 11.4468 328.05C11.2439 329.165 12.1567 330.159 13.2858 330.057C16.8625 329.733 23.955 328.942 28.6338 327.502C34.5093 325.698 37.0989 322.251 51.2974 328.138C54.2791 329.375 57.6598 329.206 60.513 327.698C68.2884 323.589 84.4748 316.289 95.6308 319.973C96.8952 320.392 98.1325 319.277 97.8417 317.979C96.2123 310.672 92.8046 296.593 92.4395 289.145C91.9865 279.844 97.3346 248.868 94.8465 245.637C92.4733 242.555 82.0407 235.478 74.9888 233.538C72.406 232.828 69.688 232.761 67.5109 232.227C62.041 230.868 46.8959 224.637 33.8738 226.32Z" fill="#3039C3"/>
<path d="M8.89101 295.64C13.2385 302.122 18.2621 304.197 29.222 301.372C40.182 298.547 63.4136 281.919 74.9009 266.083C74.9009 266.083 75.6919 264.63 77.9367 264.893C80.1814 265.157 89.424 268.719 96.2866 262.649C103.149 256.58 101.513 252.227 101.168 251.402C100.587 250.003 90.3435 251.788 87.5714 250.557C84.7993 249.321 84.8331 247.408 86.9088 244.569C89.3902 241.189 83.8527 240.419 79.6473 246.414C77.0915 250.064 72.7846 254.863 68.8901 256.83C64.8672 258.864 23.9415 273.592 21.8252 272.937C19.709 272.281 6.42316 264.251 6.42316 264.251C6.42316 264.251 4.15815 288.57 8.89101 295.64Z" fill="white"/>
<path d="M21.0004 303.616C15.3074 303.616 11.4468 301.277 8.04586 296.201C3.16425 288.922 5.32109 265.164 5.41574 264.157L5.56449 262.548L6.95054 263.386C12.1702 266.543 20.4121 271.369 22.0551 271.943C25.1923 271.93 63.6299 258.351 68.4304 255.924C72.2099 254.011 76.3884 249.287 78.8156 245.826C81.3578 242.203 84.4477 240.77 86.4085 240.96C87.3348 241.048 88.0447 241.507 88.3625 242.217C88.6262 242.805 88.7276 243.798 87.7269 245.164C86.706 246.549 86.2868 247.604 86.4693 248.293C86.5978 248.787 87.1117 249.233 87.9839 249.625C89.1333 250.138 92.4057 250.01 95.0291 249.909C99.5456 249.733 101.56 249.706 102.101 251.01C102.818 252.734 103.751 257.398 96.956 263.406C90.7627 268.881 82.967 267.063 79.2213 266.191C78.6263 266.049 78.1057 265.934 77.815 265.9C76.3478 265.732 75.8339 266.502 75.7731 266.59L75.719 266.678C64.306 282.413 40.7499 299.446 29.4722 302.352C26.2403 303.183 23.4479 303.616 21.0004 303.616ZM7.30889 265.968C6.90997 271.47 5.94312 289.415 9.73617 295.079C13.5427 300.757 17.7347 303.285 28.9719 300.392C39.925 297.567 62.8591 280.939 74.049 265.529C74.502 264.765 75.8069 263.623 78.0584 263.886C78.464 263.934 79.0049 264.062 79.6878 264.218C83.1022 265.015 90.2083 266.671 95.6173 261.886C101.155 256.992 100.83 253.464 100.316 251.997C99.5455 251.761 96.9019 251.862 95.1169 251.936C91.8445 252.065 88.7479 252.186 87.1657 251.483C85.7053 250.835 84.8128 249.936 84.5153 248.82C84.157 247.475 84.6573 245.934 86.0975 243.967C86.4964 243.427 86.5302 243.109 86.5167 243.041C86.5031 243.041 86.2935 242.94 85.8338 242.987C84.5762 243.116 82.4194 244.245 80.4857 246.995C77.9231 250.645 73.4743 255.654 69.3567 257.736C66.8347 259.006 24.4554 274.795 21.5345 273.903C19.709 273.342 10.8991 268.117 7.30889 265.968Z" fill="black"/>
<path d="M94.0961 264.197L93.9406 265.657L93.0278 274.065C92.088 281.467 92.8182 287.496 92.8182 287.496C92.8047 289.821 94.2178 292.558 95.9622 294.092C97.9702 295.863 99.0182 296.228 100.661 296.823C106.821 299.06 109.505 298.371 111.743 292.011C113.981 285.65 113.19 281.703 107.93 261.973C107.93 261.973 106.483 257.992 110.56 255.316C114.184 252.937 112.987 247.225 109.647 242.899C104.319 235.998 93.1427 263.285 94.0961 264.197Z" fill="white"/>
<path d="M105.766 298.999C104.326 298.999 102.581 298.594 100.316 297.776L100.235 297.749C98.599 297.154 97.409 296.722 95.2928 294.856C93.2441 293.045 91.8175 290.05 91.804 287.556C91.7228 286.853 91.1143 281.061 92.0203 273.944L93.0616 264.346C92.9466 263.825 93.1021 263.102 93.4199 262.041C94.6234 258.013 101.351 241.886 107.03 240.831C107.95 240.662 109.282 240.777 110.451 242.284C112.926 245.488 114.17 249.266 113.683 252.139C113.393 253.863 112.507 255.255 111.121 256.167C107.754 258.378 108.836 261.5 108.89 261.636L108.917 261.723C114.251 281.717 115.015 285.799 112.71 292.355C111.526 295.715 110.188 297.6 108.362 298.465C107.585 298.81 106.74 298.999 105.766 298.999ZM95.0696 263.731L95.1575 263.819L94.0352 274.174C93.1224 281.372 93.8188 287.313 93.8256 287.374L93.8323 287.502C93.8188 289.408 95.0223 291.916 96.6315 293.335C98.4638 294.951 99.3901 295.289 100.925 295.843L101.006 295.87C104.197 297.033 106.138 297.256 107.483 296.62C108.781 296.005 109.796 294.484 110.783 291.673C112.906 285.623 112.216 282.007 106.956 262.278C106.374 260.615 106.28 256.911 109.998 254.471C110.918 253.869 111.479 252.97 111.675 251.801C112.067 249.469 110.979 246.293 108.836 243.521C108.18 242.67 107.605 242.724 107.091 242.906C102.453 244.535 95.455 260.824 95.0696 263.731Z" fill="black"/>
<path d="M97.7606 251.274C97.7606 251.274 88.7141 252.24 85.9082 250.03C83.8325 248.395 87.7067 243.488 87.9974 243.102C90.4517 239.865 96.1853 232.328 97.0439 231.254C97.8147 230.287 99.2954 227.982 101.222 228.151C103.149 228.32 113.819 230.078 114.596 230.422C116.219 231.139 115.536 233.396 114.346 234.647C113.149 235.89 97.7606 251.274 97.7606 251.274Z" fill="black"/>
<path d="M22.3459 326.543C22.3459 326.543 13.6104 399.182 12.5286 413.193C11.4535 427.205 9.83084 476.255 12.5286 500.507C14.273 516.221 15.4832 526.732 16.1188 532.186C16.4163 534.714 18.5596 536.62 21.1018 536.62H38.9109C39.8236 536.62 40.5606 535.89 40.5741 534.984C40.6553 528.442 41.2367 503.521 45.4152 482.183C50.2697 457.391 55.6584 418.58 58.3562 402.953C59.2554 397.735 60.0127 391.936 60.655 386.259C60.655 386.259 60.655 386.259 62.6698 392.173C64.6847 398.087 72.3722 437.986 74.529 453.619C76.4898 467.84 79.7893 524.866 80.3707 535.059C80.418 535.938 81.1483 536.62 82.0272 536.62H104.833C105.685 536.62 106.401 535.978 106.489 535.126C107.551 524.555 113.798 460.682 112.811 432.058C111.736 400.797 97.7133 363.609 95.0223 353.369C92.3246 343.129 88.7073 317.161 88.7073 317.161C88.7073 317.161 34.0428 317.979 22.3459 326.543Z" fill="black"/>
<path d="M60.682 387.083C60.6415 387.083 60.6077 387.083 60.5671 387.076C60.0127 387.016 59.607 386.509 59.6746 385.955C60.0397 382.737 60.3913 379.29 60.7294 375.701C61.3987 368.543 66.1992 362.305 72.9469 359.804L76.8819 358.344C77.4025 358.148 77.9908 358.418 78.1868 358.945C78.3829 359.473 78.1125 360.054 77.5851 360.25L73.6501 361.71C67.6258 363.94 63.3459 369.51 62.751 375.89C62.4129 379.493 62.0546 382.953 61.6962 386.184C61.6286 386.698 61.1891 387.083 60.682 387.083Z" fill="#5479F7"/>
<path d="M99.8363 536.613H85.3064C84.2787 536.613 83.3457 537.228 82.9535 538.181C81.6621 541.311 79.0387 548.638 79.3903 555.579C79.485 557.478 81.0671 558.965 82.967 558.965H125.61C127.571 558.965 129.058 557.174 128.666 555.255C128.193 552.957 126.577 549.929 121.898 547.212C114.326 542.811 104.813 538.405 101.817 537.046C101.189 536.762 100.519 536.613 99.8363 536.613Z" fill="white"/>
<path d="M125.603 559.979H82.9603C80.5127 559.979 78.4978 558.073 78.3694 555.633C78.0043 548.408 80.7899 540.75 82.0069 537.796C82.5546 536.458 83.846 535.6 85.2996 535.6H99.8295C100.661 535.6 101.466 535.775 102.23 536.12C105.029 537.391 114.745 541.879 122.405 546.333C127.537 549.314 129.18 552.72 129.653 555.052C129.903 556.255 129.592 557.499 128.808 558.459C128.024 559.425 126.854 559.979 125.603 559.979ZM85.2996 537.627C84.6776 537.627 84.1232 537.999 83.8865 538.567C82.7236 541.392 80.0529 548.712 80.3978 555.525C80.4654 556.884 81.5945 557.945 82.9603 557.945H125.603C126.239 557.945 126.841 557.661 127.24 557.168C127.632 556.681 127.787 556.059 127.666 555.451C127.104 552.693 124.927 550.145 121.384 548.077C113.805 543.67 104.163 539.216 101.391 537.958C100.898 537.735 100.37 537.62 99.8295 537.62H85.2996V537.627Z" fill="black"/>
<path d="M101.804 547.164C101.54 547.164 101.276 547.063 101.08 546.86C100.688 546.461 100.695 545.819 101.094 545.427L107.206 539.412C107.605 539.02 108.247 539.026 108.639 539.425C109.032 539.824 109.025 540.466 108.626 540.858L102.514 546.874C102.318 547.07 102.061 547.164 101.804 547.164Z" fill="black"/>
<path d="M105.752 549.631C105.489 549.631 105.225 549.53 105.029 549.327C104.637 548.928 104.644 548.286 105.042 547.894L111.155 541.879C111.553 541.487 112.196 541.493 112.588 541.892C112.98 542.291 112.973 542.933 112.574 543.325L106.462 549.341C106.266 549.53 106.009 549.631 105.752 549.631Z" fill="black"/>
<path d="M35.7128 536.613H21.1829C20.1552 536.613 19.2222 537.228 18.83 538.181C17.5386 541.311 14.9153 548.638 15.2669 555.579C15.3615 557.478 16.9436 558.965 18.8435 558.965H61.4866C63.4474 558.965 64.9348 557.174 64.5427 555.255C64.0694 552.957 62.4535 549.929 57.7747 547.212C50.2021 542.811 40.6891 538.405 37.6938 537.046C37.0718 536.762 36.3957 536.613 35.7128 536.613Z" fill="white"/>
<path d="M61.4866 559.979H18.8436C16.396 559.979 14.3811 558.073 14.2527 555.633C13.8876 548.408 16.6732 540.75 17.8902 537.796C18.4379 536.458 19.7293 535.6 21.1829 535.6H35.7128C36.5445 535.6 37.3558 535.775 38.1131 536.12C40.9122 537.391 50.6281 541.879 58.2886 546.333C63.4203 549.314 65.0633 552.72 65.5366 555.052C65.7868 556.255 65.4757 557.499 64.6914 558.459C63.9071 559.425 62.7374 559.979 61.4866 559.979ZM21.1829 537.627C20.5609 537.627 20.0065 537.999 19.7698 538.567C18.6069 541.392 15.9362 548.712 16.2811 555.525C16.3487 556.884 17.4778 557.945 18.8436 557.945H61.4866C62.1222 557.945 62.7239 557.661 63.1228 557.168C63.515 556.681 63.6705 556.059 63.5488 555.451C62.9876 552.693 60.8105 550.145 57.2676 548.077C49.6883 543.67 40.0468 539.216 37.2747 537.958C36.7811 537.735 36.2537 537.62 35.7128 537.62H21.1829V537.627Z" fill="black"/>
<path d="M36.0509 546.637C35.7872 546.637 35.5235 546.536 35.3274 546.333C34.9353 545.934 34.9421 545.292 35.341 544.9L41.4531 538.884C41.852 538.492 42.4943 538.499 42.8865 538.898C43.2786 539.297 43.2719 539.939 42.873 540.331L36.7608 546.346C36.5647 546.542 36.3078 546.637 36.0509 546.637Z" fill="black"/>
<path d="M39.9994 549.104C39.7358 549.104 39.4721 549.003 39.276 548.8C38.8838 548.401 38.8906 547.759 39.2895 547.367L45.4017 541.351C45.8006 540.959 46.4429 540.966 46.835 541.365C47.2272 541.764 47.2204 542.406 46.8215 542.798L40.7094 548.813C40.5133 549.009 40.2564 549.104 39.9994 549.104Z" fill="black"/>
<path d="M52.4604 190.402C52.7782 190.51 53.1162 190.645 53.4746 190.821C53.4746 190.821 54.2791 191.315 55.0161 192.66C55.7531 194.011 56.9769 198.182 58.5725 197.938C60.1682 197.695 62.1289 191.193 62.1289 191.193C62.1289 191.193 62.7442 188.003 67.6528 189.233C72.5615 190.463 76.3681 192.545 77.842 193.403C79.316 194.261 80.6682 194.505 82.1354 194.383C83.6093 194.261 88.3963 191.436 87.5376 186.901C86.6789 182.359 82.5005 179.277 78.8224 179.29C74.9888 179.31 69.4919 176.837 68.5115 176.343C67.5311 175.85 61.7503 173.484 58.5996 175.242C55.7937 176.81 53.4272 179.29 52.1494 183.589C51.3312 186.333 51.96 188.847 52.0479 189.672C52.0885 189.99 52.1494 190.301 52.4604 190.402Z" fill="black"/>
<path d="M78.4708 193.856C78.5655 193.903 78.6196 194.005 78.6128 194.106C78.5655 194.856 78.3965 197.959 78.863 200.75C79.1199 202.291 80.1138 206.042 79.6946 206.813C79.2754 207.584 77.7339 207.644 77.0172 207.584C76.3005 207.523 75.1105 207.82 74.813 208.415C74.5155 209.01 73.623 214.539 73.2647 215.85C72.9063 217.161 71.7164 218.702 69.519 218.466C69.235 218.432 68.4169 218.249 67.7746 218.101C67.308 217.992 66.8483 218.303 66.7739 218.77C65.7192 225.488 72.5074 233.052 74.1369 234.782C74.3059 234.958 74.2451 235.255 74.0219 235.35C58.9647 241.919 43.4747 230.578 39.2422 227.056C39.0529 226.901 47.1528 224.704 51.0202 215.404C52.7241 211.308 52.1494 204.941 52.217 202.413C52.2305 201.899 51.9398 201.433 51.48 201.217C50.4658 200.75 48.9784 199.189 48.5524 197.654C47.9371 195.444 48.1805 188.401 54.0222 191.227C54.0222 191.227 54.8268 191.72 55.5638 193.065C56.3008 194.417 57.5245 198.587 59.1202 198.344C60.7158 198.101 62.6766 191.598 62.6766 191.598C62.6766 191.598 63.2919 188.408 68.2005 189.638C72.6427 190.754 77.5513 193.356 78.4708 193.856Z" fill="white"/>
<path d="M64.2046 238.405C52.3995 238.405 42.0684 230.733 38.5999 227.847L38.1671 227.482L38.2415 226.914C38.3227 226.326 38.7486 226.144 39.2827 225.907C44.3807 223.677 48.0182 220.013 50.0939 215.018C51.3718 211.943 51.2839 207.387 51.2231 204.373C51.2096 203.589 51.196 202.906 51.2095 202.393C51.2095 202.284 51.1555 202.19 51.0608 202.142C49.7897 201.554 48.0994 199.777 47.5855 197.932C47.0987 196.181 47.0717 192.18 49.1947 190.409C50.1075 189.645 51.764 189.016 54.4752 190.321L54.5631 190.368C54.6713 190.436 55.6246 191.044 56.4698 192.592C56.6726 192.957 56.8822 193.457 57.1256 194.032C57.4772 194.87 58.4035 197.053 58.9782 197.33C59.6138 196.877 60.8646 194.153 61.7165 191.342C61.7909 191.031 62.1425 189.868 63.3865 189.071C64.6509 188.266 66.3547 188.124 68.4642 188.651C73.001 189.787 77.9975 192.437 78.9576 192.957C79.3971 193.194 79.6608 193.673 79.627 194.174C79.5729 195.005 79.4241 197.938 79.8704 200.581C79.9312 200.96 80.0462 201.48 80.1679 202.055C80.7899 205.002 81.0401 206.482 80.6006 207.3C79.8163 208.76 77.4161 208.638 76.9495 208.604C76.5168 208.57 75.9083 208.753 75.7393 208.902C75.5838 209.375 75.2119 211.355 74.9685 212.68C74.698 214.14 74.4344 215.519 74.2721 216.127C73.7582 218.006 72.0612 219.77 69.4378 219.486C69.3432 219.473 69.0592 219.446 67.7746 219.148C66.9835 225.177 73.0213 232.105 74.9076 234.099C75.2119 234.424 75.3404 234.877 75.2525 235.309C75.1646 235.748 74.8671 236.113 74.4614 236.289C70.9929 237.796 67.5379 238.405 64.2046 238.405ZM41.1353 227.286C46.4361 231.396 59.6476 239.905 72.7643 234.789C70.2289 231.957 64.7726 225.002 65.78 218.628C65.8611 218.128 66.1451 217.675 66.5643 217.391C66.9835 217.107 67.5109 217.012 68.0112 217.127C69.2823 217.425 69.5866 217.465 69.6339 217.472C71.6082 217.688 72.1964 215.951 72.291 215.6C72.433 215.066 72.6967 213.667 72.9537 212.315C73.5081 209.361 73.7109 208.381 73.9137 207.982C74.4614 206.887 76.1111 206.509 77.105 206.59C77.8758 206.658 78.579 206.502 78.7818 206.36C78.8562 205.718 78.4032 203.548 78.1733 202.487C78.0449 201.879 77.9299 201.331 77.8623 200.933C77.4499 198.459 77.5107 195.789 77.5716 194.532C76.0571 193.734 71.8178 191.598 67.9706 190.639C66.4696 190.26 65.2729 190.314 64.5089 190.781C63.8395 191.186 63.6908 191.801 63.684 191.828L63.6637 191.909C62.6834 195.154 61.1283 199.087 59.2892 199.365C57.3014 199.682 56.1588 196.985 55.2528 194.829C55.0432 194.322 54.8403 193.849 54.6848 193.572C54.1845 192.653 53.6571 192.227 53.5219 192.126C52.1629 191.483 51.1487 191.429 50.4929 191.977C49.2556 193.011 49.1677 196.08 49.5395 197.404C49.8911 198.675 51.1825 199.98 51.9127 200.311C52.7443 200.696 53.265 201.534 53.2379 202.453C53.2244 202.954 53.2379 203.596 53.2514 204.346C53.3123 207.529 53.4069 212.342 51.9668 215.809C49.8235 220.946 46.186 224.806 41.1353 227.286ZM77.5986 194.038C77.5986 194.045 77.5986 194.045 77.5986 194.038C77.5986 194.045 77.5986 194.045 77.5986 194.038Z" fill="black"/>
<path d="M67.3621 219.013C67.2675 219.013 67.1728 219 67.0782 218.972C65.0295 218.371 61.7436 216.958 59.4109 215.431C58.9444 215.127 58.8159 214.498 59.1202 214.025C59.4312 213.558 60.06 213.43 60.5265 213.734C62.6901 215.154 65.7462 216.465 67.6529 217.026C68.187 217.181 68.498 217.749 68.3357 218.283C68.2073 218.729 67.8016 219.013 67.3621 219.013Z" fill="black"/>
<path d="M229.713 353.619V368.347C229.713 389.456 246.318 406.57 266.812 406.57C287.298 406.57 303.91 423.683 303.91 444.792C303.91 446.671 302.389 448.198 300.516 448.198H202.323C171.607 448.198 146.712 422.548 146.712 390.902V351.706C146.712 339.121 156.617 328.915 168.828 328.915H205.731C218.976 328.915 229.713 339.973 229.713 353.619Z" fill="#3039C3"/>
<path d="M240.199 444.9H229.861V556.897H240.199V444.9Z" fill="#3039C3"/>
<path d="M283.465 555.235L237.732 551.206H233.533L186.84 555.235V559.303H283.465V555.235Z" fill="#3039C3"/>
<path d="M218.401 450.172L204.392 459.581L211.484 467.996L227.623 460.088L218.401 450.172Z" fill="white"/>
<path d="M211.484 469.01C211.194 469.01 210.903 468.881 210.707 468.651L203.608 460.236C203.418 460.013 203.337 459.729 203.378 459.439C203.418 459.155 203.574 458.898 203.817 458.736L217.826 449.327C218.239 449.05 218.793 449.111 219.131 449.476L228.354 459.391C228.57 459.628 228.665 459.952 228.611 460.263C228.55 460.581 228.347 460.851 228.063 460.987L211.931 468.895C211.789 468.976 211.64 469.01 211.484 469.01ZM205.893 459.79L211.748 466.732L225.947 459.777L218.246 451.497L205.893 459.79Z" fill="black"/>
<path d="M206.799 455.336C204.689 456.634 200.822 459.114 197.644 461.689C195.65 463.305 195.21 466.177 196.576 468.354C200.443 474.505 210.044 487.773 219.855 497.715C220.524 498.398 222.133 499.256 224.256 498.1C231.552 494.14 223.763 481.723 218.523 465.772L214.77 465.353C212.776 465.13 211.106 463.724 210.538 461.791L208.875 456.134C208.611 455.255 207.583 454.856 206.799 455.336Z" fill="#5479F7"/>
<path d="M222.201 499.682C220.883 499.682 219.801 499.114 219.125 498.432C209.301 488.476 199.74 475.316 195.71 468.895C194.061 466.272 194.615 462.838 197.002 460.905C200.24 458.276 204.196 455.748 206.265 454.471C206.907 454.072 207.685 454.004 208.388 454.275C209.098 454.545 209.625 455.12 209.841 455.85L211.505 461.507C211.958 463.055 213.283 464.17 214.879 464.346L219.28 464.839L219.483 465.461C220.781 469.429 222.282 473.261 223.601 476.64C227.732 487.232 230.991 495.593 224.736 498.993C223.837 499.486 222.978 499.682 222.201 499.682ZM207.326 456.201C205.298 457.452 201.424 459.925 198.273 462.48C196.684 463.764 196.319 466.063 197.428 467.82C201.41 474.16 210.862 487.171 220.572 497.012C220.781 497.222 221.91 498.222 223.77 497.215C228.239 494.789 226.021 488.422 221.714 477.377C220.457 474.146 219.037 470.503 217.766 466.711L214.655 466.367C212.248 466.096 210.247 464.413 209.564 462.082L207.901 456.424C207.854 456.262 207.732 456.194 207.664 456.167C207.597 456.147 207.468 456.113 207.326 456.201Z" fill="black"/>
<path d="M198.117 461.311C198.117 461.311 197.793 461.568 197.637 461.696C195.643 463.312 195.203 466.184 196.569 468.361C200.437 474.511 210.037 487.779 219.848 497.722C220.517 498.405 222.127 499.263 224.25 498.107C224.899 497.756 225.859 496.843 225.859 496.843L225.196 496.113C215.73 485.691 207.035 474.592 199.186 462.893L198.117 461.311Z" fill="white"/>
<path d="M222.201 499.682C220.883 499.682 219.801 499.114 219.125 498.432C209.301 488.476 199.74 475.316 195.71 468.895C194.061 466.272 194.615 462.839 197.002 460.905C197.157 460.777 197.489 460.513 197.489 460.513C197.712 460.338 197.996 460.263 198.273 460.304C198.55 460.344 198.8 460.507 198.963 460.743L200.024 462.325C207.82 473.944 216.542 485.076 225.947 495.424L226.609 496.154C226.981 496.559 226.954 497.188 226.555 497.573C226.447 497.675 225.48 498.587 224.736 498.993C223.837 499.486 222.979 499.682 222.201 499.682ZM197.908 462.818C196.637 464.143 196.414 466.205 197.428 467.82C201.41 474.16 210.862 487.171 220.572 497.012C220.781 497.222 221.91 498.222 223.77 497.215C223.945 497.12 224.182 496.945 224.412 496.762C214.953 486.353 206.184 475.147 198.341 463.46L197.908 462.818Z" fill="black"/>
<path d="M221.072 475.944C221.045 475.944 221.018 475.944 220.991 475.944L213.864 475.383C213.303 475.336 212.891 474.849 212.931 474.295C212.972 473.734 213.465 473.315 214.02 473.362L221.146 473.923C221.707 473.971 222.12 474.457 222.079 475.012C222.039 475.546 221.592 475.944 221.072 475.944Z" fill="black"/>
<path d="M216.522 480.892C215.96 480.892 215.507 480.439 215.507 479.878C215.507 479.317 215.96 478.864 216.522 478.864L223.479 478.844C224.04 478.844 224.493 479.297 224.493 479.858C224.493 480.419 224.04 480.872 223.479 480.872L216.522 480.892Z" fill="black"/>
<path d="M318.386 388.34C324.133 388.361 343.646 391.605 344.214 409.462C344.41 415.552 349.285 426.779 312.795 433.91C269.293 442.406 236.94 458.932 229.645 462.866C228.584 463.44 227.34 463.562 226.19 463.21C222.539 462.088 214.838 458.966 213.871 452.348C213.655 450.868 214.317 449.388 215.528 448.509L224.507 441.98L215.987 437.425C206.265 432.22 198.584 423.663 195.088 413.166C191.965 403.785 190.423 387.725 190.423 387.725L318.386 388.34Z" fill="black"/>
<path d="M478.884 559.114L442.002 431.281L405.112 559.114H396.269L436.796 414.87L447.194 414.856L487.728 559.114H478.884Z" fill="white"/>
<path d="M324.904 526.793C326.297 532.031 326.648 537.492 325.938 542.865L346.878 539.371C341.699 537.424 337.73 533.146 336.168 527.827L334.971 523.764L324.904 526.793Z" fill="white"/>
<path d="M325.938 543.886C325.675 543.886 325.425 543.785 325.235 543.602C325.005 543.379 324.89 543.062 324.931 542.744C325.627 537.472 325.289 532.2 323.924 527.063C323.782 526.536 324.086 525.988 324.613 525.833L334.681 522.805C334.938 522.73 335.222 522.757 335.458 522.886C335.695 523.014 335.871 523.231 335.945 523.494L337.142 527.556C338.609 532.544 342.382 536.613 347.236 538.438C347.662 538.601 347.933 539.026 347.885 539.486C347.838 539.946 347.493 540.311 347.04 540.385L326.101 543.879C326.047 543.879 325.993 543.886 325.938 543.886ZM326.121 527.489C327.243 532.139 327.575 536.891 327.095 541.649L343.565 538.898C339.562 536.512 336.527 532.653 335.195 528.111L334.289 525.028L326.121 527.489Z" fill="black"/>
<path d="M325.168 536.14C324.492 538.749 323.106 546.103 322.551 550.517C322.206 553.288 324.012 555.863 326.709 556.532C334.343 558.418 352.49 557.958 367.615 558.31C368.649 558.337 370.549 557.789 371.347 555.282C374.078 546.671 357.764 544.42 341.719 535.917C341.719 535.917 340.793 536.701 339.414 537.445C337.108 538.695 333.322 538.587 331.043 537.282L327.392 535.201C326.52 534.707 325.418 535.167 325.168 536.14Z" fill="#5479F7"/>
<path d="M367.689 559.324C367.662 559.324 367.628 559.324 367.594 559.324C363.727 559.236 359.609 559.195 355.62 559.162C343.606 559.053 332.26 558.952 326.466 557.519C323.248 556.722 321.131 553.66 321.544 550.395C322.098 545.988 323.477 538.607 324.181 535.89C324.383 535.12 324.911 534.498 325.648 534.187C326.378 533.876 327.196 533.923 327.886 534.322L331.537 536.404C333.558 537.56 336.946 537.627 338.92 536.553C340.178 535.87 341.043 535.147 341.057 535.14L341.577 534.701L342.186 535.018C347.128 537.641 352.138 539.675 356.553 541.473C366.567 545.542 374.471 548.759 372.307 555.586C371.435 558.357 369.298 559.324 367.689 559.324ZM326.642 536.012C326.561 536.012 326.493 536.032 326.446 536.052C326.358 536.086 326.209 536.181 326.155 536.39C325.472 539.033 324.093 546.414 323.565 550.638C323.281 552.889 324.742 554.998 326.966 555.545C332.531 556.918 344.282 557.026 355.647 557.127C359.636 557.161 363.768 557.201 367.648 557.289C367.966 557.296 369.67 557.222 370.387 554.964C371.908 550.159 366.141 547.543 355.803 543.339C351.509 541.595 346.668 539.621 341.827 537.1C341.395 537.418 340.725 537.877 339.9 538.323C337.338 539.716 333.139 539.641 330.543 538.154L326.892 536.073C326.797 536.032 326.716 536.012 326.642 536.012Z" fill="black"/>
<path d="M322.139 552.524C322.125 552.598 322.118 552.653 322.112 552.68C321.767 555.451 324.438 557.093 326.98 558.222C334.681 561.629 365.897 558.83 365.897 558.83C365.897 558.83 370.083 558.871 371.191 556.356C371.354 555.985 371.435 555.437 371.469 554.978C371.509 554.484 371.462 553.991 371.34 553.511L371.063 552.382C366.817 554.079 347.689 555.37 333.815 553.639C327.994 552.916 324.62 550.395 322.68 549.435C322.686 549.429 322.416 550.943 322.139 552.524Z" fill="white"/>
<path d="M342.997 560.919C336.141 560.919 329.637 560.5 326.567 559.141C324.938 558.418 320.604 556.505 321.104 552.551C321.111 552.511 321.118 552.443 321.138 552.348C321.415 550.767 321.686 549.253 321.686 549.253C321.74 548.942 321.943 548.672 322.227 548.523C322.511 548.381 322.849 548.374 323.133 548.516C323.518 548.705 323.958 548.955 324.458 549.239C326.439 550.361 329.434 552.065 333.944 552.626C347.649 554.329 366.54 553.085 370.691 551.429C370.962 551.321 371.266 551.335 371.53 551.47C371.793 551.605 371.983 551.842 372.05 552.132L372.327 553.261C372.476 553.862 372.523 554.464 372.476 555.052C372.415 555.782 372.3 556.343 372.118 556.755C370.813 559.709 366.506 559.831 365.938 559.837C364.843 559.939 353.504 560.919 342.997 560.919ZM323.437 550.997C323.349 551.497 323.241 552.092 323.133 552.7C323.133 552.7 323.133 552.7 323.133 552.707L323.112 552.822C322.903 554.511 324.221 555.897 327.385 557.296C334.762 560.554 365.492 557.85 365.803 557.823C365.837 557.823 365.87 557.816 365.904 557.816C366.864 557.83 369.576 557.499 370.265 555.944C370.306 555.85 370.407 555.566 370.461 554.897C370.488 554.525 370.461 554.14 370.36 553.754L370.34 553.68C364.437 555.262 346.966 556.302 333.694 554.653C328.778 554.045 325.573 552.22 323.45 551.017C323.45 551.003 323.444 550.997 323.437 550.997Z" fill="black"/>
<path d="M343.457 544.021C343.159 544.021 342.862 543.886 342.659 543.636C342.314 543.197 342.389 542.561 342.828 542.21L347.338 538.641C347.777 538.296 348.413 538.371 348.764 538.81C349.109 539.249 349.035 539.885 348.595 540.236L344.086 543.805C343.903 543.947 343.68 544.021 343.457 544.021Z" fill="black"/>
<path d="M349.596 546.38C349.292 546.38 348.994 546.245 348.798 545.988C348.453 545.549 348.535 544.907 348.974 544.562L352.923 541.487C353.362 541.142 354.004 541.223 354.342 541.662C354.687 542.102 354.606 542.744 354.167 543.089L350.218 546.164C350.036 546.306 349.819 546.38 349.596 546.38Z" fill="black"/>
<path d="M280.834 416.235C280.834 416.235 296.777 419.756 308.643 427.962C318.927 435.072 329.765 448.678 339.643 519.959C340.306 524.745 336.222 528.171 333.423 528.827C329.461 529.753 326.209 529.388 322.862 527.218C317.156 523.514 295.614 468.692 282.775 457.053C269.935 445.421 215.703 442.933 205.244 428.124C194.784 413.315 220.463 413.315 220.463 413.315L280.834 416.235Z" fill="black"/>
<path d="M251.308 454.417C250.936 454.417 250.571 454.207 250.395 453.849C250.145 453.349 250.355 452.741 250.862 452.49C251.91 451.977 252.917 451.483 253.898 450.997C266.818 444.63 274.621 440.791 298.258 436.654C298.812 436.559 299.333 436.924 299.434 437.479C299.529 438.033 299.164 438.553 298.61 438.655C275.256 442.744 267.555 446.536 254.797 452.822C253.816 453.302 252.809 453.802 251.761 454.315C251.612 454.383 251.457 454.417 251.308 454.417Z" fill="#CADDFF"/>
<path d="M393.659 402.095H293.471C291.314 402.095 289.57 400.351 289.57 398.195V396.276H397.56V398.195C397.56 400.351 395.816 402.095 393.659 402.095Z" fill="#99B9FF"/>
<path d="M393.659 403.109H293.471C290.76 403.109 288.556 400.905 288.556 398.195V396.276C288.556 395.715 289.009 395.262 289.57 395.262H397.56C398.121 395.262 398.574 395.715 398.574 396.276V398.195C398.574 400.905 396.37 403.109 393.659 403.109ZM290.584 397.296V398.202C290.584 399.797 291.882 401.088 293.471 401.088H393.659C395.255 401.088 396.546 399.79 396.546 398.202V397.296H290.584Z" fill="black"/>
<path d="M397.567 396.384H335.776L354.058 342.447C355.235 340.635 357.277 339.533 359.481 339.533H411.718C414.085 339.533 415.613 341.838 414.842 343.879C414.524 344.684 397.567 396.384 397.567 396.384Z" fill="#99B9FF"/>
<path d="M397.567 397.398H335.776C335.452 397.398 335.141 397.242 334.951 396.972C334.762 396.708 334.708 396.363 334.816 396.052L353.098 342.115C353.125 342.034 353.159 341.96 353.207 341.892C354.579 339.777 356.918 338.513 359.481 338.513H411.718C413.179 338.513 414.484 339.189 415.302 340.372C416.093 341.514 416.269 342.954 415.788 344.231C415.484 345.056 404.369 378.912 398.534 396.695C398.392 397.114 398.006 397.398 397.567 397.398ZM337.182 395.37H396.83C398.939 388.942 413.591 344.299 413.889 343.515C414.139 342.866 414.037 342.122 413.632 341.527C413.199 340.899 412.502 340.541 411.718 340.541H359.481C357.655 340.541 355.979 341.419 354.978 342.893L337.182 395.37Z" fill="black"/>
<path d="M393.639 391.348H342.794L358.46 344.67L409.162 344.603L393.639 391.348Z" fill="#3039C3"/>
<path d="M167.712 322.697C170.41 316.735 177.59 312.889 183.175 310.699C187.036 309.185 191.126 308.361 195.264 308.199L209.902 307.624C215.433 307.225 221.944 307.482 229.05 308.753C238.495 310.436 246.967 315.606 252.992 323.102C255.716 326.488 258.117 329.422 258.313 329.483C266.223 340.635 267.298 342.595 273.018 346.759C282.572 353.707 299.286 348.043 299.286 348.043C304.857 347.205 306.879 351.382 307.893 353.7C309.11 356.485 307.933 359.885 306.858 362.068C306.169 363.467 304.999 364.555 303.559 365.143C296.392 368.077 272.011 377.208 260.835 370.855C251.518 365.556 245.257 354.498 240.267 349.064C239.76 348.516 238.861 348.922 238.921 349.665C239.976 361.872 250.003 376.363 253.052 380.52C253.6 381.264 254.425 381.744 255.338 381.852L277.4 384.373C277.704 384.393 278.035 384.522 278.36 384.697C279.807 385.475 280.746 386.948 280.963 388.584C281.308 391.193 281.091 396.08 280.293 397.654L279.536 399.148C278.928 400.351 277.704 401.122 276.358 401.142C264.634 401.331 211.795 401.352 197.441 401.27C184.318 401.196 179.051 394.701 172.046 376.343C169.261 369.016 160.512 338.601 167.712 322.697Z" fill="white"/>
<path d="M224.162 402.305C212.769 402.305 202.641 402.291 197.441 402.257C183.222 402.176 177.827 394.302 171.106 376.674C168.314 369.348 159.389 338.641 166.793 322.278C169.632 315.998 177.07 312.004 182.803 309.753C186.718 308.219 190.89 307.354 195.224 307.185L209.862 306.61C215.893 306.178 222.6 306.57 229.233 307.752C238.813 309.462 247.535 314.687 253.789 322.46C257.413 326.968 258.502 328.226 258.827 328.57L258.941 328.604L259.144 328.888C259.956 330.03 260.693 331.078 261.375 332.044C267.373 340.527 268.617 342.298 273.613 345.934C282.633 352.497 298.799 347.131 298.961 347.077L299.137 347.036C305.662 346.056 307.954 351.308 308.819 353.288C310.178 356.384 308.995 360.013 307.764 362.507C306.966 364.123 305.607 365.387 303.937 366.069C296.629 369.057 271.889 378.297 260.328 371.72C253.512 367.847 248.306 360.987 244.128 355.485C242.667 353.565 241.281 351.733 240.003 350.28C241.356 362.061 250.923 375.89 253.871 379.905C254.249 380.419 254.824 380.757 255.459 380.824L277.521 383.345C277.907 383.373 278.353 383.514 278.847 383.785C280.537 384.691 281.707 386.428 281.977 388.428C282.322 391.024 282.153 396.221 281.206 398.087L280.449 399.581C279.665 401.129 278.11 402.102 276.385 402.129C268.901 402.251 244.513 402.305 224.162 402.305ZM214.764 308.462C213.127 308.462 211.525 308.516 209.97 308.631L195.305 309.206C191.201 309.368 187.245 310.186 183.547 311.632C178.158 313.748 171.201 317.452 168.639 323.102C161.593 338.668 170.43 369.219 173 375.944C180.241 394.937 185.501 400.155 197.455 400.223C211.937 400.304 264.702 400.284 276.345 400.094C277.318 400.081 278.191 399.527 278.637 398.655L279.394 397.161C280.023 395.917 280.327 391.402 279.962 388.685C279.78 387.333 279.002 386.164 277.88 385.562C277.562 385.394 277.386 385.36 277.325 385.36L255.223 382.832C254.033 382.697 252.944 382.061 252.234 381.095C249.144 376.884 238.989 362.183 237.914 349.726C237.846 348.942 238.266 348.239 238.982 347.921C239.692 347.61 240.49 347.779 241.017 348.347C242.485 349.949 244.074 352.031 245.75 354.241C249.821 359.601 254.885 366.272 261.342 369.942C272.106 376.066 296.088 367.077 303.18 364.177C304.39 363.683 305.378 362.764 305.952 361.595C306.804 359.865 308.069 356.593 306.966 354.086C305.655 351.091 303.85 348.401 299.529 349.016C298.035 349.51 282.031 354.545 272.43 347.563C267.163 343.731 265.737 341.71 259.726 333.207C259.063 332.267 258.346 331.254 257.555 330.145C257.028 329.652 255.825 328.226 252.207 323.724C246.257 316.33 237.975 311.362 228.874 309.74C224.108 308.895 219.314 308.462 214.764 308.462Z" fill="black"/>
<path d="M286.02 401.669H311.625V401.656C311.625 397.296 308.089 393.768 303.735 393.768H293.911C289.55 393.768 286.02 397.303 286.02 401.656V401.669Z" fill="#5479F7"/>
<path d="M311.625 402.683H286.02C285.459 402.683 285.006 402.23 285.006 401.669V401.656C285.006 396.749 289.002 392.754 293.911 392.754H303.735C308.643 392.754 312.639 396.749 312.639 401.656C312.639 402.217 312.186 402.683 311.625 402.683ZM287.109 400.655H310.536C310.05 397.33 307.183 394.782 303.735 394.782H293.911C290.456 394.782 287.589 397.337 287.109 400.655Z" fill="black"/>
<path d="M274.932 389.591C275.385 388.705 276.142 387.996 277.082 387.665C277.751 387.421 278.414 387.104 279.043 386.772L287.758 382.136C289.387 381.331 291.72 383.204 293.417 383.758C298.528 385.441 309.117 389.408 308.244 393.133C307.305 397.154 298.204 395.248 294.979 394.437C294.242 394.255 287.555 396.681 285.445 396.837C282.525 397.06 281.848 396.316 280.422 395.559C279.773 395.214 279.049 395.059 278.258 395.059C277.055 395.052 275.912 394.545 275.155 393.606L275.135 393.585C274.303 392.545 274.161 391.112 274.763 389.929L274.932 389.591Z" fill="white"/>
<path d="M284.472 397.891C282.45 397.891 281.524 397.357 280.544 396.796C280.354 396.688 280.158 396.573 279.942 396.458C279.455 396.201 278.901 396.08 278.245 396.073C276.696 396.059 275.283 395.39 274.357 394.234C273.262 392.862 273.072 390.997 273.857 389.462L274.026 389.124C274.607 387.982 275.574 387.124 276.737 386.705C277.271 386.515 277.853 386.245 278.563 385.867L287.278 381.23C288.901 380.432 290.665 381.318 292.214 382.095C292.768 382.372 293.295 382.643 293.728 382.784C304.803 386.428 310.016 389.983 309.225 393.349C309.002 394.315 308.427 395.079 307.528 395.633C304.532 397.458 298.319 396.309 294.817 395.437C294.323 395.485 292.545 396.019 291.226 396.411C289.009 397.073 286.71 397.756 285.506 397.844C285.134 397.877 284.79 397.891 284.472 397.891ZM288.657 382.947C288.488 382.947 288.333 382.974 288.197 383.041L279.516 387.658C278.718 388.084 278.049 388.388 277.427 388.611C276.751 388.854 276.189 389.361 275.838 390.044L275.669 390.382C275.243 391.213 275.344 392.22 275.926 392.943C276.487 393.639 277.332 394.032 278.258 394.038C279.232 394.045 280.118 394.255 280.888 394.66C281.125 394.789 281.341 394.91 281.558 395.032C282.558 395.606 283.221 395.985 285.364 395.823C286.352 395.748 288.738 395.039 290.658 394.464C293.809 393.525 294.661 393.308 295.229 393.45C300.557 394.789 304.762 394.957 306.486 393.91C306.919 393.646 307.163 393.329 307.264 392.896C307.643 391.267 303.417 388.111 293.106 384.718C292.531 384.528 291.936 384.231 291.314 383.913C290.388 383.454 289.381 382.947 288.657 382.947Z" fill="black"/>
<path d="M338.886 354.836C339.38 354.241 339.163 353.335 338.453 353.024L322.991 346.252C320.793 345.292 318.332 345.198 316.108 346.009C313.822 346.84 310.53 347.942 306.764 348.895C297.027 351.362 296.297 364.211 306.371 359.263C309.576 357.688 311.503 356.499 311.503 356.499C311.476 356.505 315.161 361.446 321.057 359.216C323.741 358.202 325.458 356.985 326.473 356.08C327.331 355.309 328.521 355.025 329.63 355.316C332.294 356.019 336.209 358.067 338.886 354.836Z" fill="white"/>
<path d="M302.376 361.412C301.118 361.412 300.239 361.014 299.644 360.554C298.359 359.56 297.846 357.763 298.265 355.755C298.894 352.734 301.693 349.138 306.513 347.915C310.334 346.948 313.653 345.826 315.763 345.056C318.237 344.157 320.949 344.251 323.403 345.326L338.866 352.098C339.495 352.376 339.948 352.916 340.11 353.592C340.272 354.261 340.11 354.951 339.671 355.485C336.993 358.716 333.22 357.506 330.719 356.708C330.245 356.559 329.792 356.411 329.373 356.303C328.582 356.093 327.75 356.296 327.149 356.837C326.121 357.756 324.295 359.081 321.415 360.169C316.912 361.872 313.565 359.824 311.977 358.452C311.699 358.209 311.469 357.999 311.28 357.81C310.428 358.303 308.893 359.155 306.824 360.176C304.979 361.081 303.518 361.412 302.376 361.412ZM319.238 346.475C318.298 346.475 317.358 346.637 316.459 346.962C314.302 347.746 310.915 348.888 307.014 349.882C303.038 350.889 300.753 353.768 300.253 356.167C299.996 357.398 300.232 358.438 300.895 358.952C301.835 359.682 303.674 359.466 305.925 358.357C309.042 356.83 310.949 355.654 310.969 355.64C311.334 355.417 311.801 355.444 312.139 355.708C312.227 355.782 312.301 355.863 312.362 355.958C312.572 356.228 315.722 360.155 320.699 358.276C323.288 357.296 324.904 356.134 325.796 355.329C326.912 354.329 328.44 353.964 329.887 354.342C330.34 354.457 330.827 354.613 331.334 354.782C334.241 355.715 336.425 356.215 338.102 354.194C338.129 354.16 338.142 354.113 338.129 354.065C338.122 354.032 338.102 353.984 338.048 353.964L322.585 347.191C321.51 346.712 320.374 346.475 319.238 346.475Z" fill="black"/>
<path d="M315.587 355.539C313.964 355.539 312.538 354.518 311.848 353.761C311.476 353.349 311.503 352.707 311.922 352.328C312.342 351.957 312.977 351.984 313.356 352.403C313.423 352.477 315.08 354.241 316.682 353.153C317.974 352.274 319.887 351.544 321.395 352.132C324.336 353.275 325.519 352.795 325.736 352.504C325.911 352.139 325.857 351.984 325.837 351.929C325.742 351.652 325.343 351.341 324.742 351.064L320.333 349.266C319.813 349.057 319.569 348.462 319.779 347.942C319.989 347.421 320.584 347.171 321.104 347.387L325.553 349.206C326.743 349.753 327.467 350.443 327.75 351.274C327.987 351.963 327.913 352.693 327.527 353.444C327.419 353.687 326.128 356.154 320.651 354.018C320.137 353.815 318.995 354.032 317.818 354.829C317.068 355.336 316.31 355.539 315.587 355.539ZM325.736 352.504C325.715 352.538 325.709 352.565 325.709 352.565C325.715 352.538 325.729 352.518 325.736 352.504Z" fill="black"/>
<path d="M255.338 382.845C255.29 382.845 255.25 382.845 255.203 382.839C253.877 382.663 252.194 382.494 250.247 382.298C233.073 380.595 197.347 377.053 187.435 346.745C187.259 346.211 187.55 345.644 188.084 345.468C188.611 345.292 189.186 345.583 189.362 346.117C198.861 375.167 233.702 378.621 250.443 380.284C252.41 380.48 254.107 380.649 255.466 380.831C256.021 380.905 256.413 381.419 256.338 381.973C256.271 382.474 255.838 382.845 255.338 382.845Z" fill="black"/>
<path d="M212.532 303.406C212.769 302.575 213.513 301.987 214.365 301.946L220.788 301.737C221.606 301.703 222.309 301.122 222.498 300.311L224.229 292.97L227.123 291.652C227.353 291.551 227.454 291.281 227.36 291.051L225.088 285.569C224.412 283.555 224.432 279.236 223.384 279.209C223.384 279.209 203.756 270.645 199.49 280.439C198.848 281.919 198.807 283.602 199.321 285.13L200.369 288.259C201.417 291.382 201.424 294.822 200.139 297.871C199.875 298.506 198.875 300.568 197.239 303.041C195.859 305.123 192.979 307.286 190.903 308.678C189.734 309.462 189.659 311.166 190.754 312.051C192.878 313.775 196.089 316.188 198.401 317.127C203.865 319.337 206.616 319.905 209.409 319.601C212.12 319.304 213.662 316.519 212.722 313.944C210.795 308.604 212.532 303.406 212.532 303.406Z" fill="white"/>
<path d="M208.023 320.696C205.447 320.696 202.654 319.939 198.03 318.074C195.636 317.107 192.404 314.694 190.126 312.849C189.348 312.22 188.929 311.287 188.976 310.287C189.024 309.287 189.524 308.395 190.349 307.84C193.256 305.887 195.406 303.988 196.4 302.487C197.996 300.074 198.969 298.06 199.206 297.485C200.349 294.768 200.416 291.612 199.409 288.591L198.361 285.461C197.759 283.656 197.827 281.73 198.557 280.04C199.456 277.965 201.032 276.478 203.229 275.613C210.396 272.795 222.127 277.58 223.641 278.222C224.946 278.445 225.203 280.25 225.521 282.507C225.663 283.508 225.811 284.542 226.035 285.218L228.293 290.666C228.597 291.402 228.266 292.247 227.542 292.578L225.102 293.687L223.479 300.541C223.181 301.784 222.093 302.697 220.822 302.744L214.385 302.954C213.973 302.974 213.607 303.264 213.493 303.677C213.486 303.69 213.486 303.704 213.479 303.717C213.465 303.765 211.883 308.658 213.675 313.592C214.25 315.174 214.087 316.884 213.222 318.276C212.411 319.588 211.058 320.432 209.517 320.601C209.03 320.669 208.53 320.696 208.023 320.696ZM208.509 276.756C204.324 276.756 201.613 278.128 200.423 280.851C199.889 282.075 199.842 283.488 200.288 284.819L201.336 287.948C202.505 291.436 202.411 295.106 201.079 298.276C200.754 299.047 199.713 301.156 198.09 303.609C196.63 305.813 193.689 308.043 191.478 309.53C191.194 309.726 191.018 310.03 190.998 310.382C190.984 310.733 191.126 311.058 191.397 311.274C194.473 313.768 197.097 315.512 198.787 316.194C203.966 318.29 206.623 318.898 209.301 318.601C210.234 318.499 211.018 318.006 211.505 317.215C212.039 316.357 212.133 315.289 211.775 314.295C209.774 308.8 211.41 303.548 211.552 303.109C211.917 301.865 213.026 300.993 214.311 300.939L220.747 300.73C221.106 300.716 221.417 300.446 221.505 300.081L223.235 292.741C223.31 292.436 223.519 292.18 223.803 292.051L226.21 290.956L224.141 285.968C224.135 285.948 224.121 285.928 224.114 285.9C223.83 285.049 223.668 283.907 223.506 282.798C223.377 281.913 223.195 280.615 222.985 280.155C222.978 280.155 222.972 280.149 222.965 280.149C222.918 280.128 218.083 278.04 212.823 277.154C211.255 276.884 209.814 276.756 208.509 276.756Z" fill="black"/>
<path d="M228.847 263.717C224.243 262.048 228.699 268.665 212.87 258.391C206.569 254.302 207.664 263.46 206.021 262.406C199.977 258.506 200.186 258.628 196.704 258.52C194.399 258.445 191.83 262.007 191.356 265.096C190.727 269.172 194.379 278.979 197.225 286.495C198.692 290.368 204.067 292.335 206.447 287.786C207.103 286.529 204.29 282.541 206.468 280.912C210.477 277.911 210.565 284.15 213.668 283.285C216.643 282.46 217.989 281.75 221.356 280.155C225.433 278.222 229.415 284.386 233.249 278.411C235.257 275.289 235.149 266.002 228.847 263.717Z" fill="black"/>
<path d="M227.941 559.303L191.052 430.233L154.163 559.303H145.319L185.853 413.815L196.245 413.802L236.778 559.303H227.941Z" fill="white"/>
<path d="M238.117 560.317H227.177L191.052 433.923L154.927 560.317H143.987L144.345 559.033L185.082 412.808L197.022 412.795L197.232 413.538L238.117 560.317ZM228.705 558.29H235.446L195.481 414.822L186.623 414.836L146.658 558.29H153.399L191.052 426.542L228.705 558.29Z" fill="black"/>
<path d="M145.239 415.98L486.769 415.98V402.09L145.239 402.09V415.98Z" fill="white"/>
<path d="M487.782 416.992H144.224V401.074H487.782V416.992ZM146.252 414.964H485.754V403.102H146.252V414.964Z" fill="black"/>
<path d="M227.657 413.727C227.096 413.727 226.643 413.274 226.643 412.713V404.981C226.643 404.42 227.096 403.967 227.657 403.967C228.218 403.967 228.671 404.42 228.671 404.981V412.713C228.671 413.274 228.218 413.727 227.657 413.727Z" fill="#5479F7"/>
<path d="M416.039 525.914L418.02 548.401L396.796 550.638L403.388 541.629C405.146 539.222 405.748 536.161 405.031 533.261L403.233 526.002L416.039 525.914Z" fill="white"/>
<path d="M394.633 551.889L402.57 541.034C404.159 538.864 404.693 536.12 404.051 533.511L401.941 525.001L416.978 524.893L419.129 549.307L394.633 551.889ZM404.524 527.016L406.018 533.024C406.81 536.221 406.154 539.574 404.206 542.23L398.967 549.388L416.924 547.495L415.112 526.928L404.524 527.016Z" fill="black"/>
<path d="M419.487 544.562L421.258 553.815C421.258 553.815 421.508 557.195 418.067 557.789C413.591 558.56 396.174 560.946 383.835 558.702C381.002 558.188 379.731 556.411 379.494 555.485C378.845 552.923 380.488 549.253 385.647 547.34C394.856 543.933 398.372 542.818 402.854 539.783C403.848 539.107 405.349 539.824 406.032 540.723C406.032 540.723 407.655 543.102 407.634 545.596C407.628 546.495 408.554 547.097 409.379 546.738L417.235 543.359C418.195 542.947 419.291 543.528 419.487 544.562Z" fill="#5479F7"/>
<path d="M396.052 560.655C391.833 560.655 387.527 560.399 383.652 559.696C380.224 559.074 378.791 556.83 378.514 555.728C377.75 552.72 379.548 548.509 385.302 546.387L388.216 545.312C395.221 542.737 398.412 541.568 402.293 538.939C403.747 537.952 405.822 538.749 406.85 540.108C406.952 540.257 408.682 542.818 408.655 545.603C408.655 545.677 408.689 545.738 408.757 545.785C408.797 545.812 408.885 545.853 408.987 545.806L416.843 542.426C417.58 542.109 418.419 542.142 419.129 542.521C419.845 542.899 420.339 543.575 420.494 544.373L422.279 553.741C422.387 555.228 421.684 558.195 418.243 558.783C417.634 558.884 407.134 560.655 396.052 560.655ZM403.774 540.527C403.639 540.527 403.524 540.554 403.429 540.622C399.352 543.386 396.079 544.589 388.919 547.218L386.005 548.293C381.428 549.983 379.934 553.078 380.481 555.235C380.61 555.735 381.529 557.256 384.017 557.702C394.984 559.689 410.975 557.972 417.898 556.782C420.204 556.384 420.264 554.349 420.258 553.93L418.5 544.751C418.452 544.494 418.277 544.366 418.175 544.312C418.081 544.258 417.878 544.19 417.641 544.292L409.785 547.671C409.081 547.975 408.27 547.901 407.628 547.475C406.992 547.056 406.62 546.346 406.627 545.589C406.647 543.454 405.214 541.318 405.2 541.297C404.889 540.885 404.24 540.527 403.774 540.527Z" fill="black"/>
<path d="M396.418 557.33C392.699 557.33 388.744 557.134 384.809 556.6C384.254 556.525 383.862 556.012 383.936 555.458C384.011 554.903 384.518 554.511 385.079 554.586C400.501 556.661 416.262 553.545 416.417 553.511C416.965 553.396 417.499 553.754 417.614 554.302C417.722 554.849 417.371 555.383 416.823 555.498C416.694 555.532 407.601 557.33 396.418 557.33Z" fill="black"/>
<path d="M462.049 518.939C462.495 524.589 465.22 531.125 467.464 534.464L457.512 542.014L449.98 534.559C451.738 532.152 453.313 526.522 450.94 519.087L462.049 518.939Z" fill="white"/>
<path d="M457.424 543.352L448.648 534.66L449.162 533.957C450.575 532.031 452.333 526.793 449.973 519.391L449.554 518.087L462.982 517.904L463.056 518.851C463.475 524.17 466.072 530.571 468.303 533.89L468.837 534.687L457.424 543.352ZM451.278 534.417L457.6 540.676L466.105 534.221C463.955 530.693 461.731 525.049 461.129 519.959L452.286 520.081C454.003 526.488 452.941 531.591 451.278 534.417Z" fill="black"/>
<path d="M467.802 532.328L471.927 539.621C471.927 539.621 473.401 542.757 470.331 544.596C467.437 546.326 458.032 551.774 448.594 555.275C445.017 556.6 434.625 557.296 432.178 554.106C430.535 551.963 431.163 549.165 435.464 546.867C445.064 541.723 447.296 533.761 448.682 531.896C450.791 529.05 454.388 534.025 455.369 537.816C455.605 538.722 456.687 539.087 457.417 538.499L465.51 531.902C466.234 531.294 467.336 531.504 467.802 532.328Z" fill="#5479F7"/>
<path d="M440.521 557.404C436.721 557.404 432.901 556.715 431.366 554.721C430.46 553.545 430.136 552.22 430.42 550.895C430.697 549.611 431.711 547.718 434.977 545.968C442.36 542.014 445.234 536.296 446.775 533.227C447.194 532.389 447.526 531.727 447.857 531.281C448.587 530.294 449.588 529.868 450.663 530.084C453.354 530.611 455.639 534.856 456.336 537.56C456.369 537.688 456.464 537.735 456.511 537.756C456.572 537.776 456.667 537.783 456.755 537.708L464.848 531.112C465.429 530.638 466.193 530.442 466.93 530.584C467.667 530.726 468.31 531.179 468.675 531.835L472.833 539.195C473.482 540.567 473.894 543.65 470.838 545.468C467.336 547.563 458.188 552.794 448.932 556.228C447.215 556.863 443.875 557.404 440.521 557.404ZM450.135 532.058C449.98 532.058 449.764 532.125 449.493 532.49C449.27 532.795 448.959 533.416 448.594 534.133C446.951 537.404 443.895 543.494 435.944 547.752C433.929 548.827 432.678 550.098 432.414 551.321C432.252 552.058 432.448 552.781 432.982 553.484C434.984 556.1 444.686 555.64 448.242 554.322C457.336 550.949 466.356 545.785 469.811 543.724C471.961 542.44 471.143 540.358 471.021 540.081L466.924 532.828C466.822 532.646 466.653 532.585 466.565 532.571C466.477 532.551 466.308 532.544 466.139 532.68L458.046 539.276C457.438 539.77 456.626 539.925 455.889 539.675C455.139 539.432 454.578 538.824 454.381 538.06C453.672 535.302 451.643 532.335 450.284 532.071C450.237 532.071 450.19 532.058 450.135 532.058Z" fill="black"/>
<path d="M439.872 553.335C438.689 553.335 437.553 553.247 436.572 553.038C436.025 552.923 435.673 552.382 435.795 551.835C435.91 551.287 436.451 550.943 436.998 551.057C439.507 551.591 443.516 551.213 446.18 550.557C458.161 547.617 467.14 540.135 467.228 540.061C467.654 539.702 468.296 539.756 468.654 540.182C469.013 540.608 468.959 541.25 468.533 541.608C468.154 541.926 459.114 549.469 446.66 552.524C444.787 552.984 442.238 553.335 439.872 553.335Z" fill="black"/>
<path d="M427.627 447.475C426.018 465.083 440.69 505.914 446.106 519.047C446.714 520.52 448.06 521.635 449.777 521.635H462.272C464.388 521.635 466.092 520.047 466.072 518.1C465.93 504.258 459.649 465.197 468.938 450.666C474.32 442.251 490.304 445.806 496.889 441.798C512.704 432.186 506.747 400.899 506.747 400.899C506.747 400.899 429.865 422.926 427.627 447.475Z" fill="white"/>
<path d="M462.265 522.649H449.77C447.749 522.649 445.984 521.419 445.166 519.432C439.825 506.495 424.957 465.495 426.613 447.387C428.892 422.433 503.299 400.831 506.47 399.925L507.538 399.621L507.748 400.709C507.998 402.014 513.644 432.808 497.417 442.663C494.618 444.359 490.446 444.778 486.031 445.218C479.52 445.867 472.786 446.529 469.797 451.213C462.853 462.075 464.902 487.833 466.261 504.88C466.687 510.219 467.052 514.836 467.086 518.094C467.099 519.256 466.64 520.365 465.801 521.21C464.888 522.122 463.604 522.649 462.265 522.649ZM428.635 447.57C427.141 463.954 440.393 502.541 447.046 518.661C447.438 519.608 448.357 520.622 449.777 520.622H462.272C463.07 520.622 463.834 520.317 464.361 519.777C464.821 519.317 465.064 518.722 465.058 518.107C465.024 514.917 464.659 510.341 464.239 505.035C462.779 486.684 460.778 461.548 468.087 450.111C471.609 444.603 479.161 443.852 485.828 443.197C490.013 442.784 493.962 442.392 496.362 440.932C509.763 432.795 506.788 407.773 505.936 402.196C496.585 405.001 430.643 425.549 428.635 447.57Z" fill="black"/>
<path d="M452.989 404.231C452.989 404.231 400.846 404.663 384.403 422.859C369.623 439.209 391.536 513.383 396.12 527.793C396.593 529.287 398.081 530.307 399.764 530.307H419.352C419.764 530.307 420.095 529.996 420.095 529.618L416.978 501.419C413.638 463.994 417.709 456.08 417.709 456.08C421.008 445.495 449.236 445.948 464.577 446.049C513.312 446.387 498.992 403.602 498.992 403.602L452.989 404.231Z" fill="white"/>
<path d="M419.358 531.314H399.771C397.628 531.314 395.768 530.017 395.16 528.09C394.308 525.414 386.702 501.223 382.009 476.235C376.621 447.536 377.175 429.347 383.659 422.176C400.204 403.866 450.805 403.231 452.989 403.21L499.743 402.575L499.979 403.278C500.229 404.035 506.078 421.96 496.768 434.795C490.865 442.933 480.237 447.063 465.172 447.063C464.983 447.063 464.794 447.063 464.598 447.063L463.536 447.056C448.918 446.948 421.705 446.752 418.709 456.377L418.642 456.539C418.608 456.607 414.774 464.988 418.02 501.325L421.143 529.611C421.116 530.551 420.325 531.314 419.358 531.314ZM498.248 404.63L452.995 405.245C452.482 405.252 401.11 405.887 385.153 423.541C379.203 430.125 378.805 448.219 383.997 475.87C388.669 500.743 396.242 524.826 397.087 527.489C397.425 528.557 398.527 529.3 399.764 529.3H419.047L415.978 501.541C412.8 465.894 416.302 456.755 416.769 455.721C420.305 444.724 447.35 444.92 463.53 445.042L464.591 445.049C479.276 445.157 489.52 441.304 495.098 433.633C502.812 423.001 499.209 408.029 498.248 404.63Z" fill="black"/>
<path d="M416.552 371.395C416.221 371.308 408.797 371.673 408.101 371.436C404.599 370.246 397.215 367.57 393.747 367.55C389.832 367.523 386.113 366.874 383.862 366.401C382.503 366.11 381.529 366.657 381.272 367.543C381.049 368.313 381.286 370.105 383.301 370.557C385.627 371.085 387.939 371.673 389.92 372.139C390.542 372.288 391.184 372.308 390.596 372.518C389.23 372.997 387.743 373.768 387.648 374.876C387.472 376.958 392.618 381.703 398.27 382.048C403.125 382.345 404.463 379.959 406.316 379.608C406.627 379.547 414.7 379.75 415.058 379.675C418.716 378.918 418.52 371.909 416.552 371.395Z" fill="white"/>
<path d="M399.088 383.089C398.804 383.089 398.513 383.082 398.209 383.062C394.004 382.805 390.089 380.338 388.074 378.006C387.364 377.181 386.533 375.951 386.634 374.795C386.702 374.011 387.141 373.315 387.952 372.714C387.75 372.666 387.547 372.612 387.344 372.565C385.978 372.234 384.524 371.882 383.071 371.551C381.719 371.247 381.022 370.476 380.677 369.881C380.116 368.922 380.123 367.874 380.299 367.259C380.725 365.792 382.273 365.028 384.071 365.414C386.431 365.914 390.028 366.515 393.754 366.543C397.026 366.563 403.152 368.672 407.202 370.064L408.425 370.483C408.892 370.564 412.124 370.476 413.861 370.429C416.397 370.355 416.573 370.361 416.809 370.422C418.473 370.855 419.007 373.166 418.959 375.012C418.899 377.283 417.898 380.135 415.268 380.676C415.024 380.723 414.538 380.73 410.298 380.662C408.75 380.635 406.837 380.608 406.465 380.622C406.052 380.716 405.606 380.98 405.045 381.318C403.78 382.075 402.104 383.089 399.088 383.089ZM383.152 367.34C382.679 367.34 382.334 367.516 382.239 367.827C382.192 367.982 382.178 368.442 382.415 368.854C382.625 369.212 382.996 369.456 383.51 369.571C384.977 369.902 386.438 370.26 387.817 370.591C388.629 370.787 389.406 370.976 390.143 371.152C390.272 371.186 390.407 371.206 390.522 371.227C390.954 371.308 391.766 371.463 391.827 372.301C391.854 372.612 391.766 373.173 390.921 373.471C389.176 374.086 388.669 374.694 388.649 374.964C388.635 375.154 388.811 375.762 389.602 376.681C391.279 378.628 394.727 380.818 398.324 381.041C401.265 381.216 402.705 380.351 403.983 379.581C404.68 379.162 405.336 378.763 406.12 378.614C406.329 378.574 406.681 378.574 410.319 378.628C412.07 378.655 414.456 378.695 414.896 378.668C416.431 378.31 416.796 376.235 416.877 375.606C417.087 373.876 416.6 372.612 416.316 372.396C415.937 372.389 414.869 372.423 413.909 372.45C409.46 372.578 408.256 372.565 407.763 372.403L406.526 371.977C402.834 370.706 396.661 368.584 393.727 368.563C389.832 368.536 386.093 367.908 383.639 367.387C383.47 367.354 383.307 367.34 383.152 367.34Z" fill="black"/>
<path d="M456.079 326.489C445.801 334.545 442.441 357.85 435.863 363.116C430.163 367.678 409.737 369.131 409.737 369.131L409.582 382.217L427.404 382.913C438.128 383.318 448.398 378.966 452.198 375.404C464.828 363.548 491.081 338.459 497.707 321.723L479.27 319.79C479.27 319.777 467.464 317.56 456.079 326.489Z" fill="black"/>
<path d="M458.269 367.333C458.269 367.333 457.235 372.119 459.155 377.986C461.542 385.285 459.851 393.342 454.361 398.722C452.056 400.98 449.473 402.981 446.789 404.123C446.789 404.123 448.08 412.125 460.223 413.254C465.159 413.714 478.208 414.809 487.951 414.721C501.257 414.599 511.169 412.619 511.169 412.619L513.062 351.037C513.062 351.037 515.023 325.184 497.18 321.663L471.474 320.054L458.269 367.333Z" fill="black"/>
<path d="M456.633 373.302C456.39 373.302 456.139 373.214 455.943 373.031C455.531 372.653 455.504 372.011 455.882 371.598C461.433 365.583 465.747 359.27 468.35 353.349C468.573 352.835 469.175 352.605 469.689 352.828C470.203 353.052 470.433 353.653 470.21 354.167C467.519 360.29 463.076 366.793 457.377 372.977C457.174 373.193 456.903 373.302 456.633 373.302Z" fill="#CADDFF"/>
<path d="M456.856 290.835C456.856 290.835 450.379 291.031 451.285 279.54C452.198 267.969 464.861 268.665 469.229 267.137C473.597 265.603 480.818 256.269 483.604 253.782C486.382 251.294 494.956 240.933 512.657 250.76C512.657 250.76 515.773 253.694 527.721 250.483C538.113 247.692 557.808 250.395 554.096 265.637C553.028 270.037 550.371 273.754 546.774 276.167C546.118 276.607 545.401 277.046 544.61 277.472C542.318 278.709 540.797 281.102 540.641 283.852C540.148 292.808 535.516 310.78 504.793 299.229C502.474 298.357 499.959 298.661 497.951 300.013C495.483 301.676 493.374 306.745 480.176 307.205C471.697 307.502 467.498 298.898 464.598 295.167C461.19 290.787 456.856 290.835 456.856 290.835Z" fill="black"/>
<path d="M458.749 290.841C458.749 290.841 458.729 292.896 458.702 293.802C458.675 294.66 458.945 297.418 457.417 300.737C457.269 301.054 457.39 301.433 457.688 301.615L459.96 303.041C460.115 303.143 460.223 303.298 460.257 303.481C460.467 304.609 461.237 308.766 461.508 309.517C461.826 310.388 462.678 311.058 463.063 311.193C464.091 311.544 468.046 310.307 468.046 310.307C468.046 310.307 467.465 309.564 470.615 315.012C472.833 318.844 468.093 325.123 468.093 325.123C468.093 325.123 485.963 332.335 495.983 323.711C496.605 323.177 496.328 322.061 495.537 321.865C486.065 319.52 484.814 314.755 481.082 307.354C480.906 307.002 480.487 306.84 480.095 306.806C478.499 306.664 474.314 306.82 472.901 300.121C472.867 299.953 472.873 299.77 472.928 299.601C473.374 298.209 475.281 291.423 469.162 294.282C465.125 296.167 462.84 293.498 462.022 292.2C461.751 291.774 461.325 291.477 460.832 291.355L458.749 290.841Z" fill="white"/>
<path d="M482.765 328.983C475.098 328.983 468.181 326.252 467.721 326.063C467.431 325.948 467.208 325.698 467.126 325.393C467.045 325.089 467.106 324.765 467.295 324.515C468.499 322.913 471.291 318.182 469.75 315.519C468.695 313.694 467.938 312.362 467.512 311.558C467.505 311.551 467.505 311.544 467.498 311.531C465.889 311.99 463.726 312.484 462.752 312.153C462.13 311.943 461.001 311.064 460.568 309.861C460.311 309.152 459.743 306.218 459.297 303.819L457.154 302.474C456.423 302.014 456.146 301.088 456.505 300.311C457.742 297.627 457.708 295.336 457.695 294.234C457.695 294.045 457.688 293.89 457.695 293.768C457.722 292.869 457.742 290.828 457.742 290.821C457.742 290.51 457.891 290.219 458.134 290.03C458.377 289.841 458.702 289.773 458.999 289.848L461.075 290.361C461.832 290.544 462.475 291.004 462.88 291.646C463.867 293.207 465.693 294.775 468.736 293.356C470.879 292.355 472.495 292.308 473.536 293.22C475.233 294.707 474.489 298.046 473.901 299.898C475.071 305.427 478.174 305.644 479.838 305.758L480.189 305.786C481.021 305.86 481.677 306.259 481.988 306.887C482.414 307.725 482.806 308.536 483.178 309.307C486.085 315.289 487.843 318.905 495.781 320.865C496.518 321.047 497.092 321.642 497.281 322.413C497.464 323.183 497.221 323.967 496.653 324.461C492.657 327.915 487.566 328.983 482.765 328.983ZM469.669 324.609C473.752 325.988 487.343 329.807 495.321 322.94C495.314 322.933 495.3 322.859 495.273 322.839C486.43 320.655 484.3 316.269 481.352 310.206C480.987 309.456 480.608 308.678 480.196 307.861C480.162 307.847 480.094 307.827 480 307.813L479.682 307.786C477.796 307.658 473.387 307.347 471.9 300.324C471.825 299.98 471.846 299.621 471.954 299.283C472.637 297.141 472.738 295.228 472.184 294.741C472.049 294.626 471.467 294.309 469.581 295.187C464.659 297.485 461.886 293.89 461.149 292.727C461.028 292.531 460.818 292.382 460.575 292.328L459.736 292.119C459.73 292.72 459.716 293.396 459.703 293.815C459.703 293.917 459.703 294.045 459.703 294.201C459.716 295.417 459.75 297.905 458.438 300.892L460.487 302.176C460.886 302.426 461.156 302.832 461.244 303.291C461.819 306.421 462.299 308.732 462.454 309.165C462.65 309.719 463.239 310.165 463.394 310.226C463.813 310.321 465.652 309.956 467.431 309.422C467.87 309.125 468.506 309.253 468.837 309.672C468.945 309.807 469.013 309.969 469.04 310.138C469.222 310.503 469.784 311.551 471.487 314.491C473.435 317.844 471.007 322.494 469.669 324.609Z" fill="black"/>
<path d="M470.899 301.75C469.986 301.75 469.094 301.406 468.763 300.879C468.465 300.405 468.6 299.777 469.074 299.479C469.486 299.223 470.007 299.29 470.338 299.621C470.5 299.689 470.96 299.811 471.379 299.635C471.765 299.479 472.035 299.081 472.197 298.459C472.333 297.918 472.887 297.587 473.428 297.722C473.969 297.857 474.3 298.411 474.165 298.952C473.631 301.054 472.231 301.581 471.447 301.71C471.264 301.737 471.082 301.75 470.899 301.75Z" fill="black"/>
<path d="M456.883 301.298C455.937 301.298 455.098 300.987 454.415 300.372C452.231 298.405 452.448 294.011 452.482 293.518C452.515 292.991 452.948 292.578 453.476 292.572L468.594 292.254C469.128 292.234 469.615 292.687 469.628 293.248C469.642 293.809 469.195 294.268 468.634 294.282L454.497 294.579C454.537 295.944 454.801 297.999 455.774 298.871C456.025 299.101 456.464 299.385 457.336 299.229C457.884 299.135 458.411 299.506 458.506 300.054C458.601 300.608 458.229 301.129 457.681 301.223C457.404 301.277 457.14 301.298 456.883 301.298Z" fill="black"/>
<path d="M470.149 303.46C470.088 302.845 470.534 302.298 471.143 302.237C471.751 302.176 472.299 302.636 472.36 303.251C472.42 303.866 471.974 304.413 471.366 304.474C470.751 304.535 470.21 304.076 470.149 303.46Z" fill="#5479F7"/>
<path d="M478.282 355.187V369.915C478.282 391.024 461.677 408.138 441.184 408.138C420.697 408.138 404.085 425.252 404.085 446.36C404.085 448.239 405.606 449.767 407.479 449.767H505.672C536.388 449.767 561.283 424.116 561.283 392.47V353.275C561.283 340.689 551.378 330.483 539.167 330.483H502.264C489.019 330.476 478.282 341.541 478.282 355.187Z" fill="#3039C3"/>
<path d="M426.491 435.775C426.289 435.775 426.086 435.715 425.91 435.593C425.45 435.268 425.342 434.64 425.66 434.18C430.9 426.718 439.25 422.447 450.487 421.473C457.086 420.905 463.482 419.141 468.026 416.647C479.432 410.382 494.591 399.283 494.591 375.35V372.578C494.591 348.097 503.062 346.853 516.882 346.853C517.443 346.853 517.896 347.306 517.896 347.867C517.896 348.428 517.443 348.881 516.882 348.881C504.685 348.881 496.619 348.881 496.619 372.578V375.35C496.619 400.351 480.858 411.909 468.999 418.418C464.212 421.047 457.532 422.893 450.656 423.487C439.899 424.42 432.259 428.293 427.316 435.336C427.127 435.627 426.809 435.775 426.491 435.775Z" fill="#CADDFF"/>
<path d="M493.299 446.718H482.961V558.715H493.299V446.718Z" fill="#3039C3"/>
<path d="M439.689 557.053L485.429 553.024H489.621L536.314 557.053V560.25H439.689V557.053Z" fill="#5479F7"/>
</svg>
